<svg xmlns="http://www.w3.org/2000/svg" width="383" height="309" fill="none"><rect width="118.274" height="17.809" fill="#81ACFA" rx="4" transform="matrix(1 0 .08716 .9962 161.633 272.588)"/><rect width="118.274" height="17.809" fill="url(#a)" rx="4" transform="matrix(1 0 .08716 .9962 162.633 269.588)"/><path fill="url(#b)" d="m32.505 148.18 36.78 85.112c25.18 58.267 91.725 89.125 148.315 68.777l85.675-30.806c91.652-32.954 86.59-163.719-7.961-205.65L172.859 11.307C80.133-29.813-7.488 55.635 32.505 148.18"/><rect width="68.502" height="88.093" fill="url(#c)" rx="2" transform="matrix(1 0 .08716 .9962 180.84 189.236)"/><rect width="68.502" height="77.252" fill="url(#d)" rx="2" transform="matrix(1 0 .08716 .9962 180.84 189.236)"/><rect width="137.89" height="105.817" fill="url(#e)" rx="10" transform="matrix(1 0 .08716 .9962 .076 169.044)"/><g opacity=".3"><path fill="#B0C6F8" fill-rule="evenodd" d="M32.416 185.888a1 1 0 0 0-1 1v4.978a1 1 0 0 0 1 1H65.98a1 1 0 0 0 1-1v-4.978a1 1 0 0 0-1-1zm39.964 0a.9.9 0 0 0-.913.996l.434 4.959c.048.551.535.997 1.087.997h11.475a.9.9 0 0 0 .913-.997l-.434-4.959a1.11 1.11 0 0 0-1.087-.996zm-38.814 13.156a.9.9 0 0 0-.912.996l.433 4.959c.049.55.535.996 1.088.996h33.564a.9.9 0 0 0 .913-.996l-.434-4.959a1.11 1.11 0 0 0-1.087-.996zm39.965 0a.9.9 0 0 0-.913.996l.434 4.959c.048.55.535.996 1.087.996h11.475a.9.9 0 0 0 .912-.996l-.433-4.959a1.11 1.11 0 0 0-1.088-.996z" clip-rule="evenodd"/><path fill="#CEDCFF" fill-rule="evenodd" d="M34.717 212.2a.9.9 0 0 0-.913.996l.434 4.959c.048.55.535.996 1.087.996H68.89a.9.9 0 0 0 .913-.996l-.434-4.959a1.11 1.11 0 0 0-1.087-.996zm39.964 0a.9.9 0 0 0-.913.996l.434 4.959c.049.55.535.996 1.088.996h11.474a.9.9 0 0 0 .913-.996l-.434-4.959a1.11 1.11 0 0 0-1.087-.996z" clip-rule="evenodd"/><path fill="#1CCDB8" d="M52.416 238.875c.698-1.125 2.373-1.125 3.268 0l15.628 19.634c1.05 1.319.262 3.141-1.36 3.141h-27.82c-1.622 0-2.728-1.822-1.909-3.141z"/><path fill="#1CCDB8" d="M75.608 246.101c.699-1.124 2.373-1.124 3.268 0l9.876 12.408c1.05 1.319.263 3.141-1.359 3.141h-17.58c-1.622 0-2.73-1.822-1.91-3.141z"/><circle cx="3.072" cy="3.072" r="3.072" fill="#1CCDB8" transform="matrix(1 0 .08716 .9962 76.041 232.35)"/></g><path fill="#0D4CAC" fill-opacity=".1" fill-rule="evenodd" d="M145.514 268.054H92.96c-6.628 0-12.655-5.332-13.463-11.91l-10.694-87.1h50.164c5.523 0 10.779 4.443 11.74 9.924l14.93 85.166c.244 1.392.188 2.718-.123 3.92" clip-rule="evenodd"/><rect width="238.238" height="173.566" fill="#81ACFA" rx="12" transform="matrix(1 0 .08716 .9962 84.719 85.475)"/><rect width="237.238" height="172.566" x=".544" y=".498" fill="url(#f)" stroke="url(#g)" rx="11.5" transform="matrix(1 0 .08716 .9962 86.675 83.477)"/><path fill="url(#h)" stroke="url(#i)" d="M101.526 88.354h209.477c5.247 0 9.871 4.237 10.328 9.464l10.845 123.958a1.35 1.35 0 0 1-1.369 1.495H105.33a1.666 1.666 0 0 1-1.631-1.495L92.854 97.818c-.457-5.227 3.425-9.464 8.672-9.464Z"/><path fill="#1346CB" fill-rule="evenodd" d="M101.481 87.856c-5.522 0-9.22 4.443-8.26 9.924l.757 4.315c.822-3.673 3.978-6.27 8.201-6.27h210.54c4.595 0 9.005 3.075 10.91 7.265l-.93-5.31c-.961-5.481-6.217-9.924-11.74-9.924z" clip-rule="evenodd"/><rect width="108" height="108" fill="#0D4CAC" fill-opacity=".18" rx="54" transform="matrix(1 0 .08716 .9962 246.5 74.57)"/><rect width="107" height="107" x=".544" y=".498" fill="url(#j)" stroke="#fff" rx="53.5" transform="matrix(1 0 .08716 .9962 264.88 56.617)"/><path fill="#CDDCEF" fill-rule="evenodd" d="M332.098 96.246c0 7.312-5.994 13.26-13.362 13.26-7.367 0-13.361-5.948-13.361-13.26s5.994-13.26 13.361-13.26 13.362 5.948 13.362 13.26m-29.466 46.337c-5.999-3.171-9.589-7.472-9.982-11.957-.194-2.221.403-4.42 1.757-6.471s3.437-3.916 6.133-5.486c2.696-1.571 5.95-2.816 9.577-3.666s7.556-1.287 11.562-1.287c4.007 0 8.012.437 11.788 1.287s7.248 2.095 10.219 3.666 5.38 3.434 7.093 5.486 2.694 4.25 2.888 6.471c.393 4.485-2.445 8.786-7.889 11.957s-13.048 4.953-21.14 4.953c-8.091 0-16.007-1.782-22.006-4.953" clip-rule="evenodd"/><path fill="#6599FF" fill-rule="evenodd" d="M337.098 90.246c0 7.312-5.994 13.26-13.362 13.26-7.367 0-13.361-5.948-13.361-13.26s5.994-13.26 13.361-13.26 13.362 5.948 13.362 13.26m-29.466 46.337c-5.999-3.171-9.589-7.472-9.982-11.957-.194-2.221.403-4.42 1.757-6.471s3.437-3.916 6.133-5.486c2.696-1.571 5.95-2.816 9.577-3.666s7.556-1.287 11.562-1.287c4.007 0 8.012.437 11.788 1.287s7.248 2.095 10.219 3.666 5.38 3.434 7.093 5.486 2.694 4.25 2.888 6.471c.393 4.485-2.445 8.786-7.889 11.957s-13.048 4.953-21.14 4.953c-8.091 0-16.007-1.782-22.006-4.953" clip-rule="evenodd"/><path fill="#1346CB" fill-opacity=".2" fill-rule="evenodd" d="m161.055 128.365 28.66 8.821c1.076.33 1.878 1.301 1.956 2.4l3.072 35.11v.003c-.04.279-.863 6.036-6.064 11.611-4.631 4.974-16.473 11.605-19.042 12.915l-1.302.678c-.343.183-.986.192-1.361 0l-1.421-.678a10 10 0 0 0-.462-.22 27 27 0 0 1-.957-.458c-4.799-2.399-15.802-7.932-20.564-12.237-6.146-5.556-7.984-11.293-8.085-11.608l-.002-.006-3.072-35.11c-.105-1.099.518-2.07 1.537-2.4zm6.113 66.088.019.009s.009 0 .026-.009zm.377-20.389h4.505c1.471 0 2.562-1.191 2.435-2.657h-.009l-.01-.109c-.128-1.466-1.428-2.657-2.899-2.657h-4.505l-.408-4.662c3.88-1.054 6.341-4.873 6.115-8.922.004-.064-.002-.128-.007-.192q.002-.054-.007-.102l-.007-.054c-.206-1.823-.911-3.682-2.108-5.175a11.26 11.26 0 0 0-5.118-3.636c-3.605-1.273-7.862-.11-9.983 2.757-1.225 1.658-1.835 3.518-1.832 5.651.007 1.869.697 3.866 1.811 5.46 1.072 1.529 2.596 2.876 4.308 3.627.506.219 1.009.393 1.509.54q.002.033.001.067l.002.08 1.427 16.304c.128 1.466 1.427 2.656 2.898 2.656s2.563-1.19 2.434-2.656zm-.834-16.882a1 1 0 0 0-.056.092 4 4 0 0 1-.341.41 2 2 0 0 1-.305.303 2 2 0 0 0-.276.201 8 8 0 0 1-.604.348c-.321.119-.661.22-1.005.284a7 7 0 0 1-1.076 0 9 9 0 0 1-1.054-.284 8 8 0 0 1-.792-.43 1 1 0 0 0-.098-.064 7 7 0 0 1-.446-.376 4 4 0 0 1-.27-.258l-.071-.072a3 3 0 0 0-.228-.293 9 9 0 0 1-.405-.632 7 7 0 0 1-.375-1.026 7 7 0 0 1-.093-1.072c.043-.348.105-.686.195-1.025q.16-.388.367-.751a1 1 0 0 0 .056-.092c.107-.147.224-.284.341-.412.072-.086.155-.167.237-.246l.067-.065c.165-.11.251-.174.276-.201q.294-.189.604-.349a6.4 6.4 0 0 1 1.005-.284 7 7 0 0 1 1.076 0c.356.074.704.166 1.054.284q.406.194.792.431c.011.009.05.037.098.064q.236.182.446.376c.094.079.183.169.27.258l.071.071c.126.175.198.266.228.294q.216.308.405.632c.149.339.281.687.375 1.035.034.173.06.356.075.531l.009.255.009.276a7 7 0 0 1-.194 1.035q-.16.389-.367.752" clip-rule="evenodd"/><path fill="#fff" fill-rule="evenodd" d="m166.536 122.143 28.659 8.82c1.077.33 1.879 1.302 1.957 2.401l3.072 35.109-.001.003c-.04.279-.862 6.036-6.063 11.611-4.631 4.974-16.473 11.606-19.043 12.915l-1.302.678c-.342.183-.985.192-1.361 0l-1.42-.678c-.138-.071-.282-.137-.463-.22a29 29 0 0 1-.957-.457c-4.798-2.4-15.802-7.933-20.564-12.238-6.145-5.556-7.983-11.293-8.084-11.608l-.002-.006-3.072-35.109c-.105-1.099.518-2.071 1.537-2.401zm6.112 66.087.02.009s.009 0 .026-.009zm.377-20.389h4.506c1.471 0 2.562-1.191 2.434-2.657h-.009l-.01-.109c-.128-1.466-1.427-2.657-2.898-2.657h-4.506l-.408-4.662c3.881-1.054 6.341-4.873 6.116-8.922a1 1 0 0 0-.008-.192.4.4 0 0 0-.007-.102q-.004-.025-.006-.054c-.206-1.822-.911-3.682-2.109-5.175a11.26 11.26 0 0 0-5.118-3.636c-3.605-1.273-7.861-.11-9.983 2.757-1.225 1.658-1.835 3.518-1.832 5.652.007 1.868.697 3.865 1.811 5.459 1.072 1.529 2.597 2.876 4.308 3.627.506.219 1.009.394 1.509.54q.002.033.002.067l.002.08 1.426 16.304c.128 1.466 1.428 2.656 2.899 2.656s2.562-1.19 2.434-2.656zm-.833-16.882a.5.5 0 0 0-.056.092 4 4 0 0 1-.342.41 2.2 2.2 0 0 1-.304.303c-.166.11-.251.174-.277.201-.2.129-.393.239-.604.348-.32.119-.661.22-1.005.284a7 7 0 0 1-1.076 0 9 9 0 0 1-1.054-.284 8 8 0 0 1-.791-.43 1 1 0 0 0-.098-.064 6 6 0 0 1-.447-.376 4 4 0 0 1-.27-.258l-.071-.072a3 3 0 0 0-.228-.293 9 9 0 0 1-.404-.632 7 7 0 0 1-.375-1.026 7 7 0 0 1-.094-1.071c.043-.349.106-.687.195-1.026a7 7 0 0 1 .367-.751.5.5 0 0 0 .056-.092q.164-.22.341-.412c.072-.086.156-.167.238-.246l.066-.065c.166-.11.251-.174.277-.201q.293-.188.604-.348c.32-.119.661-.22 1.005-.284a7 7 0 0 1 1.076 0c.355.073.703.165 1.054.284q.407.193.791.43c.011.009.05.037.098.064q.237.182.447.376c.093.079.182.169.27.258l.071.072c.125.174.197.265.228.293q.215.308.404.632c.149.339.281.687.376 1.035.034.173.059.356.074.531l.009.255.01.276a7 7 0 0 1-.195 1.035q-.16.389-.366.752" clip-rule="evenodd"/><path fill="#1346CB" fill-opacity=".2" fill-rule="evenodd" d="M249.143 139.557h-37.678l.357 4.085H249.5zm1.139 13.022h-37.678l.358 4.085h37.677zm-36.539 13.022h37.678l.358 4.085h-37.678zm38.817 13.021h-37.677l.357 4.086h37.678z" clip-rule="evenodd"/><path fill="#B6CFFF" fill-rule="evenodd" d="M252.143 135.557h-37.678l.357 4.085H252.5zm1.139 13.022h-37.678l.358 4.085h37.677zm-36.539 13.022h37.678l.358 4.085h-37.678zm38.817 13.021h-37.677l.357 4.086h37.678z" clip-rule="evenodd"/><defs><linearGradient id="a" x1="59.137" x2="59.137" y1="0" y2="17.809" gradientUnits="userSpaceOnUse"><stop stop-color="#EBF3FF"/><stop offset="1" stop-color="#D4E4FF"/></linearGradient><linearGradient id="b" x1="228.313" x2="228.313" y1="-98.142" y2="338.976" gradientUnits="userSpaceOnUse"><stop stop-color="#E5EFFF"/><stop offset="1" stop-color="#F2F7FF" stop-opacity="0"/></linearGradient><linearGradient id="c" x1="1.411" x2="66.523" y1="88.093" y2="99.442" gradientUnits="userSpaceOnUse"><stop stop-color="#3E71E2"/><stop offset="1" stop-color="#4A82E8"/></linearGradient><linearGradient id="d" x1="1.411" x2="65.952" y1="77.252" y2="90.081" gradientUnits="userSpaceOnUse"><stop stop-color="#1846AE"/><stop offset="1" stop-color="#1350BF"/></linearGradient><linearGradient id="e" x1="68.945" x2="68.945" y1="0" y2="105.817" gradientUnits="userSpaceOnUse"><stop stop-color="#E7F0FF"/><stop offset="1" stop-color="#F4F8FF"/></linearGradient><linearGradient id="f" x1="119.119" x2="119.119" y1="0" y2="173.566" gradientUnits="userSpaceOnUse"><stop stop-color="#EBF3FF"/><stop offset="1" stop-color="#D4E4FF"/></linearGradient><linearGradient id="g" x1="119.119" x2="119.119" y1="0" y2="173.566" gradientUnits="userSpaceOnUse"><stop stop-color="#fff"/><stop offset="1" stop-color="#fff" stop-opacity="0"/></linearGradient><linearGradient id="h" x1="206.221" x2="206.221" y1="87.856" y2="223.769" gradientUnits="userSpaceOnUse"><stop stop-color="#3D70F7"/><stop offset="1" stop-color="#7CAEFF"/></linearGradient><linearGradient id="i" x1="206.221" x2="206.221" y1="87.856" y2="223.769" gradientUnits="userSpaceOnUse"><stop stop-color="#fff" stop-opacity="0"/><stop offset="1" stop-color="#fff"/></linearGradient><linearGradient id="j" x1="54" x2="54" y1="0" y2="108" gradientUnits="userSpaceOnUse"><stop stop-color="#E7F0FF"/><stop offset="1" stop-color="#F4F8FF"/></linearGradient></defs></svg>