<svg xmlns="http://www.w3.org/2000/svg" width="382" height="309" fill="none"><rect width="118.274" height="17.809" fill="#81ACFA" rx="4" transform="matrix(1 0 .08716 .9962 162.134 272.588)"/><rect width="118.274" height="17.809" fill="url(#a)" rx="4" transform="matrix(1 0 .08716 .9962 163.134 269.588)"/><path fill="url(#b)" d="m33.006 148.18 36.78 85.112c25.18 58.267 91.724 89.125 148.315 68.777l85.675-30.806c91.652-32.954 86.59-163.719-7.961-205.65L173.359 11.307C80.634-29.813-6.988 55.635 33.006 148.18"/><rect width="68.502" height="88.093" fill="url(#c)" rx="2" transform="matrix(1 0 .08716 .9962 181.339 189.236)"/><rect width="68.502" height="77.252" fill="url(#d)" rx="2" transform="matrix(1 0 .08716 .9962 181.339 189.236)"/><rect width="137.89" height="105.817" fill="url(#e)" rx="10" transform="matrix(1 0 .08716 .9962 .576 169.044)"/><g opacity=".3"><path fill="#B0C6F8" fill-rule="evenodd" d="M32.915 185.888a1 1 0 0 0-1 1v4.978a1 1 0 0 0 1 1h33.564a1 1 0 0 0 1-1v-4.978a1 1 0 0 0-1-1zm39.964 0a.9.9 0 0 0-.913.996l.434 4.959c.048.551.535.997 1.087.997h11.475a.9.9 0 0 0 .913-.997l-.434-4.959a1.11 1.11 0 0 0-1.087-.996zm-38.813 13.156a.9.9 0 0 0-.913.996l.434 4.959c.048.55.534.996 1.087.996h33.565a.9.9 0 0 0 .912-.996l-.433-4.959a1.11 1.11 0 0 0-1.088-.996zm39.964 0a.9.9 0 0 0-.913.996l.434 4.959c.048.55.535.996 1.087.996h11.475a.9.9 0 0 0 .913-.996l-.434-4.959a1.11 1.11 0 0 0-1.087-.996z" clip-rule="evenodd"/><path fill="#CEDCFF" fill-rule="evenodd" d="M35.217 212.2a.9.9 0 0 0-.913.996l.434 4.959c.048.55.535.996 1.087.996H69.39a.9.9 0 0 0 .912-.996l-.434-4.959a1.11 1.11 0 0 0-1.087-.996zm39.964 0a.9.9 0 0 0-.913.996l.434 4.959c.048.55.535.996 1.087.996h11.475a.9.9 0 0 0 .913-.996l-.434-4.959a1.11 1.11 0 0 0-1.087-.996z" clip-rule="evenodd"/><path fill="#1CCDB8" d="M52.915 238.875c.699-1.125 2.373-1.125 3.268 0l15.628 19.634c1.05 1.32.263 3.141-1.359 3.141h-27.82c-1.622 0-2.729-1.821-1.91-3.141z"/><path fill="#1CCDB8" d="M76.109 246.101c.698-1.124 2.373-1.124 3.268 0l9.876 12.408c1.05 1.319.262 3.141-1.36 3.141h-17.58c-1.622 0-2.728-1.822-1.909-3.141z"/><circle cx="3.072" cy="3.072" r="3.072" fill="#1CCDB8" transform="matrix(1 0 .08716 .9962 76.54 232.35)"/></g><path fill="#0D4CAC" fill-opacity=".1" fill-rule="evenodd" d="M146.013 268.054H93.459c-6.628 0-12.655-5.332-13.463-11.91l-10.694-87.1h50.164c5.523 0 10.779 4.443 11.74 9.924l14.93 85.166c.244 1.392.188 2.718-.123 3.92" clip-rule="evenodd"/><rect width="238.238" height="173.566" fill="#81ACFA" rx="12" transform="matrix(1 0 .08716 .9962 85.219 85.475)"/><rect width="237.238" height="172.566" x=".544" y=".498" fill="url(#f)" stroke="url(#g)" rx="11.5" transform="matrix(1 0 .08716 .9962 87.175 83.477)"/><path fill="url(#h)" stroke="url(#i)" d="M93.354 97.818c-.458-5.227 3.425-9.464 8.672-9.464h209.477c5.247 0 9.871 4.237 10.328 9.464l10.845 123.958a1.35 1.35 0 0 1-1.369 1.495H105.829a1.666 1.666 0 0 1-1.63-1.495z"/><path fill="#1346CB" fill-rule="evenodd" d="M101.982 87.856c-5.523 0-9.22 4.443-8.26 9.924l.756 4.315c.823-3.673 3.979-6.27 8.201-6.27H313.22c4.594 0 9.004 3.075 10.91 7.265l-.931-5.31c-.961-5.481-6.217-9.924-11.74-9.924z" clip-rule="evenodd"/><rect width="88.877" height="105.817" fill="#0D4CAC" fill-opacity=".18" rx="10" transform="matrix(1 0 .08716 .9962 263.177 76.36)"/><rect width="87.877" height="104.817" x=".544" y=".498" fill="url(#j)" stroke="#fff" rx="9.5" transform="matrix(1 0 .08716 .9962 282.133 56.363)"/><path fill="#1346CB" fill-opacity=".2" d="M122.153 131.358h17.712l1.104 4.83h-11.772l1.218 5.327h10.224l1.031 4.51h-10.224l1.226 5.363h11.772l1.104 4.83h-17.712zm27.652 5.682.471 2.06a4.6 4.6 0 0 1 1.883-1.527 5.8 5.8 0 0 1 2.498-.568q.9 0 1.749.248l.998 4.368a8.7 8.7 0 0 0-1.964-.248q-1.368 0-2.487.461-1.126.427-1.735 1.385l2.971 12.999h-5.76l-4.384-19.178zm14.696 0 .47 2.06a4.6 4.6 0 0 1 1.883-1.527 5.8 5.8 0 0 1 2.499-.568q.9 0 1.748.248l.999 4.368a8.7 8.7 0 0 0-1.965-.248q-1.368 0-2.487.461-1.126.427-1.735 1.385l2.971 12.999h-5.76l-4.383-19.178zm22.225 19.639q-3.06 0-5.684-1.243-2.589-1.242-4.368-3.516-1.788-2.308-2.502-5.433-1.097-4.795 1.056-7.352 2.151-2.556 6.903-2.557 4.716 0 8.037 2.557 3.32 2.557 4.416 7.352.714 3.125-.018 5.433-.741 2.274-2.76 3.516-2.02 1.243-5.08 1.243m-6.866-10.192q.625 2.735 2.267 4.403 1.641 1.67 3.657 1.67t2.859-1.67q.878-1.668.253-4.403-.65-2.841-2.206-4.297-1.529-1.492-3.617-1.492t-2.971 1.492q-.891 1.456-.242 4.297m27.058.631h9.224l1.764 9.139h-9.224z"/><path fill="#1346CB" fill-opacity=".2" fill-rule="evenodd" d="M131.881 180.739a.9.9 0 0 0-.912.997l.277 3.177c.049.55.535.996 1.088.996h94.957a.9.9 0 0 0 .913-.996l-.278-3.177a1.11 1.11 0 0 0-1.087-.997zm1.509 17.243a.9.9 0 0 0-.913.996l.278 3.177c.048.55.535.996 1.087.996h164.054a.9.9 0 0 0 .913-.996l-.278-3.177a1.11 1.11 0 0 0-1.087-.996z" clip-rule="evenodd"/><path fill="#fff" d="M128.153 122.358h17.712l1.104 4.83h-11.772l1.218 5.327h10.224l1.031 4.51h-10.224l1.226 5.363h11.772l1.104 4.83h-17.712zm27.652 5.682.471 2.06a4.6 4.6 0 0 1 1.883-1.527 5.8 5.8 0 0 1 2.498-.568q.9 0 1.749.248l.998 4.368a8.7 8.7 0 0 0-1.964-.248q-1.368 0-2.487.461-1.126.427-1.735 1.385l2.971 12.999h-5.76l-4.384-19.178zm14.696 0 .47 2.06a4.6 4.6 0 0 1 1.883-1.527 5.8 5.8 0 0 1 2.499-.568q.9 0 1.748.248l.999 4.368a8.7 8.7 0 0 0-1.965-.248q-1.368 0-2.487.461-1.126.427-1.735 1.385l2.971 12.999h-5.76l-4.383-19.178zm22.225 19.639q-3.06 0-5.684-1.243-2.589-1.242-4.368-3.516-1.788-2.308-2.502-5.433-1.097-4.795 1.056-7.352 2.151-2.556 6.903-2.557 4.716 0 8.037 2.557 3.32 2.557 4.416 7.352.714 3.125-.018 5.433-.741 2.274-2.76 3.516-2.02 1.243-5.08 1.243m-6.866-10.192q.625 2.735 2.267 4.403 1.641 1.67 3.657 1.67t2.859-1.67q.878-1.668.253-4.403-.65-2.841-2.206-4.297-1.529-1.492-3.617-1.492t-2.971 1.492q-.891 1.456-.242 4.297"/><path fill="#26FF3B" d="M212.918 138.118h9.224l1.764 9.139h-9.224z"/><path fill="#fff" fill-rule="evenodd" d="M137.881 171.739a1 1 0 0 0-1 1v3.19a1 1 0 0 0 1 1h94.958a1 1 0 0 0 1-1v-3.19a1 1 0 0 0-1-1zm1.509 17.243a.9.9 0 0 0-.913.996l.278 3.177c.048.55.535.996 1.087.996h164.054a.9.9 0 0 0 .913-.996l-.278-3.177a1.11 1.11 0 0 0-1.087-.996z" clip-rule="evenodd" opacity=".5"/><path fill="#B0C6F8" fill-rule="evenodd" d="M302.209 71.187a1 1 0 0 0-1 1v4.978a1 1 0 0 0 1 1h33.565a1 1 0 0 0 1-1v-4.978a1 1 0 0 0-1-1zm39.965 0a.9.9 0 0 0-.913.996l.434 4.96c.048.55.535.996 1.087.996h11.475a.9.9 0 0 0 .912-.996l-.433-4.96a1.11 1.11 0 0 0-1.088-.996zM303.36 84.343a.9.9 0 0 0-.913.996l.434 4.96c.048.55.535.996 1.087.996h33.565a.9.9 0 0 0 .913-.996l-.434-4.96a1.11 1.11 0 0 0-1.087-.996zm39.965 0a.9.9 0 0 0-.913.996l.434 4.96c.048.55.535.996 1.087.996h11.475a.9.9 0 0 0 .912-.996l-.434-4.96a1.11 1.11 0 0 0-1.087-.996z" clip-rule="evenodd"/><path fill="#CEDCFF" fill-rule="evenodd" d="M304.511 97.499a.9.9 0 0 0-.913.996l.434 4.96c.048.55.535.996 1.087.996h33.565a.9.9 0 0 0 .913-.996l-.434-4.96a1.11 1.11 0 0 0-1.087-.996zm39.965 0a.9.9 0 0 0-.913.996l.434 4.96c.048.55.535.996 1.087.996h11.475a.9.9 0 0 0 .912-.996l-.434-4.96a1.11 1.11 0 0 0-1.087-.996z" clip-rule="evenodd"/><path fill="#1CCDB8" d="M322.21 124.174c.698-1.124 2.373-1.124 3.268 0l15.628 19.634c1.05 1.32.262 3.141-1.359 3.141h-27.821c-1.621 0-2.728-1.821-1.909-3.141z"/><path fill="#1CCDB8" d="M345.404 131.401c.698-1.125 2.372-1.125 3.268 0l9.875 12.407c1.051 1.32.263 3.141-1.359 3.141h-17.58c-1.622 0-2.729-1.821-1.909-3.141z"/><circle cx="3.072" cy="3.072" r="3.072" fill="#1CCDB8" transform="matrix(1 0 .08716 .9962 345.834 117.65)"/><rect width="188.629" height="45.152" x="126.136" y="162.548" stroke="#fff" stroke-dasharray="4 4" rx="3.5"/><path stroke="#fff" stroke-dasharray="4 4" d="m246.144 178.957 18.069-11.377c11.08-6.977 14.381-21.629 7.363-32.683a23.646 23.646 0 0 1 2.812-28.953l4.587-4.833"/><path fill="#fff" d="M284.371 92.95a1.56 1.56 0 0 0-1.59-.293l-15.878 6a1.54 1.54 0 0 0-1.007 1.386 1.54 1.54 0 0 0 .875 1.475l2.479 1.212a.6.6 0 0 1 .133.094c.257.663 1.275 3.263 1.727 4.202.229.478.651.814 1.041.96l-.086-.013q.114.043.234.067a1.55 1.55 0 0 0 1.413-.426l.924-.924a.524.524 0 0 1 .624-.086l3.978 2.259c.239.135.505.205.77.205a1.57 1.57 0 0 0 1.517-1.186l3.322-13.394a1.54 1.54 0 0 0-.476-1.537m-14 9.554 8.513-4.87-4.805 4.922a.8.8 0 0 0-.175.278l-.005.013c-.01.032-.96 2.834-1.522 4.101a.95.95 0 0 1-.333-.367c-.416-.874-1.386-3.348-1.673-4.077"/><defs><linearGradient id="a" x1="59.137" x2="59.137" y1="0" y2="17.809" gradientUnits="userSpaceOnUse"><stop stop-color="#EBF3FF"/><stop offset="1" stop-color="#D4E4FF"/></linearGradient><linearGradient id="b" x1="228.813" x2="228.813" y1="-98.142" y2="338.976" gradientUnits="userSpaceOnUse"><stop stop-color="#E5EFFF"/><stop offset="1" stop-color="#F2F7FF" stop-opacity="0"/></linearGradient><linearGradient id="c" x1="1.411" x2="66.523" y1="88.093" y2="99.442" gradientUnits="userSpaceOnUse"><stop stop-color="#3E71E2"/><stop offset="1" stop-color="#4A82E8"/></linearGradient><linearGradient id="d" x1="1.411" x2="65.952" y1="77.252" y2="90.081" gradientUnits="userSpaceOnUse"><stop stop-color="#1846AE"/><stop offset="1" stop-color="#1350BF"/></linearGradient><linearGradient id="e" x1="68.945" x2="68.945" y1="0" y2="105.817" gradientUnits="userSpaceOnUse"><stop stop-color="#E7F0FF"/><stop offset="1" stop-color="#F4F8FF"/></linearGradient><linearGradient id="f" x1="119.119" x2="119.119" y1="0" y2="173.566" gradientUnits="userSpaceOnUse"><stop stop-color="#EBF3FF"/><stop offset="1" stop-color="#D4E4FF"/></linearGradient><linearGradient id="g" x1="119.119" x2="119.119" y1="0" y2="173.566" gradientUnits="userSpaceOnUse"><stop stop-color="#fff"/><stop offset="1" stop-color="#fff" stop-opacity="0"/></linearGradient><linearGradient id="h" x1="206.721" x2="206.721" y1="87.856" y2="223.769" gradientUnits="userSpaceOnUse"><stop stop-color="#3D70F7"/><stop offset="1" stop-color="#7CAEFF"/></linearGradient><linearGradient id="i" x1="206.721" x2="206.721" y1="87.856" y2="223.769" gradientUnits="userSpaceOnUse"><stop stop-color="#fff" stop-opacity="0"/><stop offset="1" stop-color="#fff"/></linearGradient><linearGradient id="j" x1="44.439" x2="44.439" y1="0" y2="105.817" gradientUnits="userSpaceOnUse"><stop stop-color="#E7F0FF"/><stop offset="1" stop-color="#F4F8FF"/></linearGradient></defs></svg>