<svg xmlns="http://www.w3.org/2000/svg" fill="none" class="design-iconfont" viewBox="0 0 382 309"><path fill="url(#a)" d="m33.005 148.18 36.78 85.112c25.18 58.267 91.725 89.125 148.315 68.777l85.675-30.806c91.652-32.954 86.59-163.719-7.961-205.65L173.359 11.307C80.633-29.813-6.988 55.635 33.005 148.18"/><rect width="118.274" height="17.809" fill="#3A4E7A" rx="4" transform="matrix(1 0 .08716 .9962 162.133 272.588)"/><rect width="118.274" height="17.809" fill="url(#b)" rx="4" transform="matrix(1 0 .08716 .9962 163.133 269.588)"/><rect width="68.502" height="88.093" fill="url(#c)" rx="2" transform="matrix(1 0 .08716 .9962 181.34 189.236)"/><rect width="68.502" height="77.252" fill="#051539" rx="2" transform="matrix(1 0 .08716 .9962 181.34 189.236)"/><rect width="137.89" height="105.817" fill="url(#d)" rx="10" transform="matrix(1 0 .08716 .9962 .576 169.044)"/><g opacity=".3"><path fill="#B0C6F8" fill-rule="evenodd" d="M32.916 185.888a1 1 0 0 0-1 1v4.978a1 1 0 0 0 1 1H66.48a1 1 0 0 0 1-1v-4.978a1 1 0 0 0-1-1zm39.964 0a.9.9 0 0 0-.913.996l.434 4.959c.048.551.535.997 1.087.997h11.475a.9.9 0 0 0 .913-.997l-.434-4.959a1.11 1.11 0 0 0-1.087-.996zm-38.814 13.156a.9.9 0 0 0-.912.996l.433 4.959c.049.55.535.996 1.088.996h33.564a.9.9 0 0 0 .913-.996l-.434-4.959a1.11 1.11 0 0 0-1.087-.996zm39.965 0a.9.9 0 0 0-.913.996l.434 4.959c.048.55.535.996 1.087.996h11.475a.9.9 0 0 0 .912-.996l-.433-4.959a1.11 1.11 0 0 0-1.088-.996z" clip-rule="evenodd"/><path fill="#CEDCFF" fill-rule="evenodd" d="M35.217 212.2a.9.9 0 0 0-.913.996l.434 4.959c.048.55.535.996 1.087.996H69.39a.9.9 0 0 0 .913-.996l-.434-4.959a1.11 1.11 0 0 0-1.087-.996zm39.964 0a.9.9 0 0 0-.913.996l.434 4.959c.049.55.535.996 1.088.996h11.474a.9.9 0 0 0 .913-.996l-.434-4.959a1.11 1.11 0 0 0-1.087-.996z" clip-rule="evenodd"/><path fill="#1CCDB8" d="M52.916 238.875c.698-1.125 2.373-1.125 3.268 0l15.628 19.634c1.05 1.319.262 3.141-1.36 3.141h-27.82c-1.622 0-2.728-1.822-1.909-3.141z"/><path fill="#1CCDB8" d="M76.108 246.101c.699-1.124 2.373-1.124 3.268 0l9.876 12.408c1.05 1.319.263 3.141-1.359 3.141h-17.58c-1.622 0-2.73-1.822-1.91-3.141zm3.505-13.751a3.203 2.935 42.502 1 0 .535 6.12 3.203 2.935 42.502 1 0-.535-6.12"/></g><path fill="#000F25" fill-opacity=".1" fill-rule="evenodd" d="M146.014 268.054H93.46c-6.628 0-12.655-5.332-13.463-11.91l-10.694-87.1h50.164c5.523 0 10.779 4.443 11.74 9.924l14.93 85.166c.244 1.392.188 2.718-.123 3.92" clip-rule="evenodd"/><rect width="238.238" height="173.566" fill="#3A4E7A" rx="12" transform="matrix(1 0 .08716 .9962 85.219 85.475)"/><rect width="237.238" height="172.566" x=".544" y=".498" fill="url(#e)" stroke="url(#f)" rx="11.5" transform="matrix(1 0 .08716 .9962 87.175 83.477)"/><path fill="url(#g)" stroke="url(#h)" d="M102.026 88.354h209.477c5.247 0 9.871 4.237 10.328 9.464l10.845 123.958a1.35 1.35 0 0 1-1.369 1.495H105.83a1.666 1.666 0 0 1-1.631-1.495L93.354 97.818c-.457-5.227 3.425-9.464 8.672-9.464Z"/><path fill="#071435" fill-rule="evenodd" d="M101.981 87.856c-5.522 0-9.22 4.443-8.26 9.924l.757 4.315c.822-3.673 3.978-6.27 8.201-6.27h210.54c4.595 0 9.005 3.075 10.91 7.265l-.93-5.31c-.961-5.481-6.217-9.924-11.74-9.924z" clip-rule="evenodd"/><rect width="88.877" height="105.817" fill="#02132D" fill-opacity=".5" rx="10" transform="matrix(1 0 .08716 .9962 263.178 76.36)"/><rect width="87.877" height="104.817" x=".544" y=".498" fill="url(#i)" stroke="#7384AD" rx="9.5" transform="matrix(1 0 .08716 .9962 282.134 56.363)"/><path fill="#031031" fill-opacity=".5" d="M122.154 131.358h17.712l1.104 4.83h-11.772l1.218 5.327h10.224l1.031 4.51h-10.224l1.225 5.363h11.772l1.104 4.83h-17.712zm27.652 5.682.471 2.06a4.6 4.6 0 0 1 1.883-1.527 5.8 5.8 0 0 1 2.498-.568q.9 0 1.749.248l.998 4.368a8.7 8.7 0 0 0-1.964-.248q-1.368 0-2.487.461-1.127.427-1.735 1.385l2.971 12.999h-5.76l-4.384-19.178zm14.696 0 .47 2.06a4.6 4.6 0 0 1 1.883-1.527 5.8 5.8 0 0 1 2.498-.568q.9 0 1.749.248l.999 4.368a8.7 8.7 0 0 0-1.965-.248q-1.368 0-2.487.461-1.126.427-1.735 1.385l2.971 12.999h-5.76l-4.383-19.178zm22.225 19.639q-3.06 0-5.685-1.243-2.588-1.242-4.367-3.516-1.788-2.308-2.502-5.433-1.096-4.795 1.056-7.352 2.151-2.556 6.903-2.557 4.716 0 8.037 2.557 3.32 2.557 4.416 7.352.714 3.125-.018 5.433-.74 2.274-2.761 3.516-2.019 1.243-5.079 1.243m-6.866-10.192q.625 2.735 2.266 4.403 1.642 1.67 3.658 1.67t2.858-1.67q.88-1.668.254-4.403-.65-2.841-2.206-4.297-1.53-1.492-3.617-1.492-2.089 0-2.971 1.492-.891 1.456-.242 4.297m27.057.631h9.224l1.764 9.138h-9.224z"/><path fill="#031031" fill-opacity=".5" fill-rule="evenodd" d="M131.883 180.739a.9.9 0 0 0-.913.997l.278 3.177c.048.55.535.996 1.087.996h94.958a.9.9 0 0 0 .913-.996l-.278-3.177a1.11 1.11 0 0 0-1.087-.997zm1.508 17.243a.9.9 0 0 0-.913.996l.278 3.177c.049.55.535.996 1.088.996h164.054a.9.9 0 0 0 .913-.996l-.278-3.177a1.11 1.11 0 0 0-1.088-.996z" clip-rule="evenodd"/><path fill="#fff" d="M128.154 122.358h17.712l1.104 4.83h-11.772l1.218 5.327h10.224l1.031 4.51h-10.224l1.225 5.363h11.772l1.104 4.83h-17.712zm27.652 5.682.471 2.06a4.6 4.6 0 0 1 1.883-1.527 5.8 5.8 0 0 1 2.498-.568q.9 0 1.749.248l.998 4.368a8.7 8.7 0 0 0-1.964-.248q-1.368 0-2.487.461-1.127.427-1.735 1.385l2.971 12.999h-5.76l-4.384-19.178zm14.696 0 .47 2.06a4.6 4.6 0 0 1 1.883-1.527 5.8 5.8 0 0 1 2.498-.568q.9 0 1.749.248l.999 4.368a8.7 8.7 0 0 0-1.965-.248q-1.368 0-2.487.461-1.126.427-1.735 1.385l2.971 12.999h-5.76l-4.383-19.178zm22.225 19.639q-3.06 0-5.685-1.243-2.588-1.242-4.367-3.516-1.788-2.308-2.502-5.433-1.096-4.795 1.056-7.352 2.151-2.556 6.903-2.557 4.716 0 8.037 2.557 3.32 2.557 4.416 7.352.714 3.125-.018 5.433-.74 2.274-2.761 3.516-2.019 1.243-5.079 1.243m-6.866-10.192q.625 2.735 2.266 4.403 1.642 1.67 3.658 1.67t2.858-1.67q.88-1.668.254-4.403-.65-2.841-2.206-4.297-1.53-1.492-3.617-1.492-2.089 0-2.971 1.492-.891 1.456-.242 4.297"/><path fill="#26FF3B" d="M212.918 138.118h9.224l1.764 9.138h-9.224z"/><path fill="#fff" fill-rule="evenodd" d="M137.882 171.739c-.552 0-1.039.45-1.087 1.004l-.279 3.202a.904.904 0 0 0 .912 1.004h94.958c.552 0 1.039-.45 1.087-1.004l.279-3.202a.904.904 0 0 0-.912-1.004zm0 17.308a1 1 0 0 0-1 1v3.19a1 1 0 0 0 1 1h164.054a1 1 0 0 0 1-1v-3.19a1 1 0 0 0-1-1z" clip-rule="evenodd" opacity=".5"/><path fill="#B0C6F8" fill-rule="evenodd" d="M302.209 71.187a1 1 0 0 0-1 1v4.978a1 1 0 0 0 1 1h33.564a1 1 0 0 0 1-1v-4.978a1 1 0 0 0-1-1zm39.964 0a.9.9 0 0 0-.913.996l.434 4.96c.048.55.535.996 1.087.996h11.475a.9.9 0 0 0 .913-.996l-.434-4.96a1.11 1.11 0 0 0-1.087-.996zm-38.814 13.156a.9.9 0 0 0-.912.996l.433 4.96c.049.55.535.996 1.088.996h33.564a.9.9 0 0 0 .913-.996l-.434-4.96a1.11 1.11 0 0 0-1.087-.996zm39.965 0a.9.9 0 0 0-.913.996l.434 4.96c.048.55.535.996 1.087.996h11.475a.9.9 0 0 0 .913-.996l-.434-4.96a1.11 1.11 0 0 0-1.088-.996z" clip-rule="evenodd"/><path fill="#CEDCFF" fill-rule="evenodd" d="M304.51 97.499a.9.9 0 0 0-.913.996l.434 4.96c.048.55.535.996 1.087.996h33.565a.9.9 0 0 0 .913-.996l-.434-4.96a1.11 1.11 0 0 0-1.087-.996zm39.964 0a.9.9 0 0 0-.913.996l.434 4.96c.048.55.535.996 1.087.996h11.475a.9.9 0 0 0 .913-.996l-.434-4.96a1.11 1.11 0 0 0-1.087-.996z" clip-rule="evenodd"/><path fill="#1CCDB8" d="M322.209 124.174c.698-1.124 2.372-1.124 3.268 0l15.628 19.634c1.05 1.32.262 3.141-1.36 3.141h-27.82c-1.622 0-2.728-1.821-1.909-3.141z"/><path fill="#1CCDB8" d="M345.401 131.401c.699-1.125 2.373-1.125 3.268 0l9.876 12.407c1.051 1.32.263 3.141-1.359 3.141h-17.581c-1.621 0-2.728-1.821-1.909-3.141zm3.505-13.751a3.203 2.935 42.502 1 0 .535 6.12 3.203 2.935 42.502 1 0-.535-6.12"/><rect width="188.629" height="45.152" x="126.137" y="162.548" stroke="#6571B2" stroke-dasharray="4 4" rx="3.5"/><path stroke="#6571B2" stroke-dasharray="4 4" d="m246.145 178.957 18.068-11.377c11.081-6.977 14.382-21.629 7.363-32.683a23.646 23.646 0 0 1 2.812-28.953l4.588-4.833"/><path fill="#87AAEF" d="M284.371 92.95a1.56 1.56 0 0 0-1.59-.293l-15.878 6a1.54 1.54 0 0 0-1.007 1.386 1.54 1.54 0 0 0 .874 1.475l2.48 1.212a.6.6 0 0 1 .132.094c.258.664 1.275 3.263 1.728 4.202.229.479.65.814 1.041.96l-.086-.013q.113.043.234.067a1.55 1.55 0 0 0 1.413-.426l.923-.924a.525.525 0 0 1 .625-.086l3.978 2.259a1.56 1.56 0 0 0 1.386.078c.453-.195.781-.581.901-1.059l3.322-13.394a1.54 1.54 0 0 0-.476-1.537m-14 9.554 8.513-4.87-4.805 4.922a.8.8 0 0 0-.175.279l-.005.013c-.01.031-.96 2.833-1.522 4.1a.95.95 0 0 1-.333-.367c-.416-.874-1.387-3.348-1.673-4.077"/><defs><linearGradient id="a" x1="228.813" x2="228.813" y1="-98.142" y2="338.976" gradientUnits="userSpaceOnUse"><stop stop-color="#363B42"/><stop offset="1" stop-color="#363B42" stop-opacity="0"/></linearGradient><linearGradient id="b" x1="59.137" x2="59.137" y1="0" y2="17.809" gradientUnits="userSpaceOnUse"><stop stop-color="#7D87A1"/><stop offset="1" stop-color="#97A1BB"/></linearGradient><linearGradient id="c" x1="1.411" x2="66.523" y1="88.093" y2="99.442" gradientUnits="userSpaceOnUse"><stop stop-color="#1E3B7A"/><stop offset="1" stop-color="#153F8B"/></linearGradient><linearGradient id="d" x1="68.945" x2="68.945" y1="0" y2="105.817" gradientUnits="userSpaceOnUse"><stop stop-color="#586075"/><stop offset="1" stop-color="#65749C"/></linearGradient><linearGradient id="e" x1="119.119" x2="119.119" y1="0" y2="173.566" gradientUnits="userSpaceOnUse"><stop stop-color="#7D87A1"/><stop offset="1" stop-color="#97A1BB"/></linearGradient><linearGradient id="f" x1="119.119" x2="119.119" y1="0" y2="173.566" gradientUnits="userSpaceOnUse"><stop stop-color="#959FB9"/><stop offset="1" stop-color="#959FB9" stop-opacity="0"/></linearGradient><linearGradient id="g" x1="206.721" x2="206.721" y1="87.856" y2="223.769" gradientUnits="userSpaceOnUse"><stop stop-color="#0C2054"/><stop offset="1" stop-color="#113C81"/></linearGradient><linearGradient id="h" x1="206.721" x2="206.721" y1="87.856" y2="223.769" gradientUnits="userSpaceOnUse"><stop stop-color="#fff" stop-opacity="0"/><stop offset="1" stop-color="#9DA8E1"/></linearGradient><linearGradient id="i" x1="44.439" x2="44.439" y1="0" y2="105.817" gradientUnits="userSpaceOnUse"><stop stop-color="#586075"/><stop offset="1" stop-color="#65749C"/></linearGradient></defs></svg>