<svg xmlns="http://www.w3.org/2000/svg" fill="none" class="design-iconfont" viewBox="0 0 16 16"><path fill="#165DFF" d="M7.359 14.4h-3.84a.64.64 0 0 1-.64-.64v-1.92c0-1.763 1.436-3.2 3.2-3.2h3.84c.673 0 1.318.21 1.867.605a.64.64 0 0 0 .75-1.037A4.44 4.44 0 0 0 9.92 7.36H6.08a4.483 4.483 0 0 0-4.48 4.48v1.92c0 1.06.86 1.92 1.92 1.92h3.839a.64.64 0 1 0 0-1.281m.64-7.68a3.2 3.2 0 1 0 0-6.4 3.2 3.2 0 0 0 0 6.4M8 1.6a1.92 1.92 0 1 1-.001 3.841A1.92 1.92 0 0 1 8 1.6"/><path stroke="#165DFF" stroke-linecap="round" stroke-linejoin="round" stroke-width="1.3" d="m8.503 12.2 1.94 1.94 3.881-3.88"/></svg>