<svg xmlns="http://www.w3.org/2000/svg" xmlns:xlink="http://www.w3.org/1999/xlink" width="24" height="24"><defs><linearGradient id="a" x1="13.118%" x2="50%" y1="0%" y2="79.348%"><stop offset="0%" stop-color="#65E54A"/><stop offset="100%" stop-color="#35C724"/></linearGradient><path id="b" d="M0 0h16v16H0z"/></defs><g fill="none" fill-rule="evenodd"><rect width="24" height="24" fill="url(#a)" rx="8"/><g transform="translate(4 4)"><mask id="c" fill="#fff"><use xlink:href="#b"/></mask><g mask="url(#c)"><path fill="#FFF" d="M6.125 10.765a3.9 3.9 0 0 1 .23-1.343c.143-.43.36-.835.641-1.2.282-.342.614-.645.986-.9.382-.281.804-.51 1.255-.677l.076-.225.067-.171.048-.153a.7.7 0 0 0 .249-.136.8.8 0 0 0 .191-.234 1 1 0 0 0 .115-.406.8.8 0 0 0 0-.324 1 1 0 0 0-.086-.216.44.44 0 0 0-.153-.163 7 7 0 0 0-.115-.964 5.4 5.4 0 0 0-.22-.902 2.5 2.5 0 0 0-.47-.838 2 2 0 0 0-.41-.315 3 3 0 0 0-.594-.298 5 5 0 0 0-.718-.207 3.7 3.7 0 0 0-.766-.081 4.5 4.5 0 0 0-.651 0 3.5 3.5 0 0 0-.67.162 3 3 0 0 0-.642.334 2.6 2.6 0 0 0-.584.54 2.2 2.2 0 0 0-.412.794q-.132.406-.191.829-.05.45-.048.901a.8.8 0 0 0-.172.244.86.86 0 0 0-.01.703q.057.164.163.306.074.097.172.171a.8.8 0 0 0 .192.081l.134.37q.064.167.153.325a.7.7 0 0 0 .191.234c.154.117.297.225.412.333a.6.6 0 0 1 .22.433v.352a.7.7 0 0 1-.067.297 1.3 1.3 0 0 1-.22.297q-.196.174-.43.298-.25.142-.527.225l-.594.172-.603.162a2.7 2.7 0 0 0-.536.225 1.6 1.6 0 0 0-.402.334.95.95 0 0 0-.22.486c-.097.417-.13.846-.096 1.271.048.334.134.532.22.595q.185.094.392.117l.757.118.957.117 1.092.09L5.493 13h1.264a4.4 4.4 0 0 1-.498-1.064 3.9 3.9 0 0 1-.134-1.171"/><path fill="#00AAA6" fill-rule="nonzero" d="m11.269 10.735-.121.55h.569l.12-.327v-.55h-.344z"/><path fill="#FFF" d="M11 7a3.8 3.8 0 0 1 1.55.316 4 4 0 0 1 2.131 2.108v.029a3.94 3.94 0 0 1 0 3.104A3.97 3.97 0 0 1 11.009 15a4 4 0 0 1-1.569-.316 3.9 3.9 0 0 1-1.269-.853 4.3 4.3 0 0 1-.852-1.274 3.94 3.94 0 0 1 0-3.104c.201-.48.491-.913.852-1.274.37-.367.8-.66 1.27-.863A3.8 3.8 0 0 1 11 7m1.4 4.6H9.6a.6.6 0 1 0 0 1.2h2.8a.6.6 0 1 0 0-1.2m0-2.4H9.6a.6.6 0 1 0 0 1.2h2.8a.6.6 0 1 0 0-1.2"/></g></g></g></svg>