<svg xmlns="http://www.w3.org/2000/svg" fill="none" class="design-iconfont" viewBox="0 0 21 21"><path fill="#fff" d="M15.77 19.5H5.813a4.094 4.094 0 0 1-4.092-4.092V5.451a4.094 4.094 0 0 1 4.092-4.093h9.957a4.094 4.094 0 0 1 4.093 4.093v9.957a4.094 4.094 0 0 1-4.093 4.093"/><path fill="#009CF5" d="M1.792 10.43a9 9 0 1 0 17.999 0 9 9 0 0 0-17.999 0"/><path fill="#FF4C3A" d="m16.462 4.664-6.41 5.028 1.478 1.478 5.024-6.41c.054-.063-.03-.144-.092-.096"/><path fill="#fff" d="m5.122 16.194 6.41-5.024-1.478-1.478-5.028 6.407c-.05.062.03.143.096.095M10.82 1.963a.14.14 0 0 0-.138.138v1.253c0 .075.06.138.138.138.077 0 .137-.06.137-.138V2.101a.14.14 0 0 0-.137-.138m-1.472.126a.135.135 0 0 0-.111.159l.218 1.235a.135.135 0 0 0 .16.11.135.135 0 0 0 .11-.158L9.505 2.2a.135.135 0 0 0-.158-.111m-1.08 1.73a.136.136 0 0 0 .177.08.136.136 0 0 0 .081-.176l-.429-1.178a.136.136 0 0 0-.177-.081.136.136 0 0 0-.08.176zm-1.109.54a.14.14 0 0 0 .186.05.14.14 0 0 0 .05-.186l-.626-1.085a.14.14 0 0 0-.186-.05.14.14 0 0 0-.05.185zm-.998.722a.137.137 0 0 0 .192.018.137.137 0 0 0 .018-.192l-.807-.96a.137.137 0 0 0-.192-.017.137.137 0 0 0-.018.191zm-.858.887a.135.135 0 0 0 .192-.018.135.135 0 0 0-.018-.192l-.96-.806a.135.135 0 0 0-.191.018.135.135 0 0 0 .018.192zm-1.778.393 1.086.627a.134.134 0 0 0 .186-.051.14.14 0 0 0-.051-.19l-1.086-.623a.134.134 0 0 0-.186.051c-.039.063-.015.147.051.186m-.596 1.325 1.178.429a.14.14 0 0 0 .177-.081.14.14 0 0 0-.081-.177l-1.178-.429a.14.14 0 0 0-.177.081.136.136 0 0 0 .08.177m.926 1.355L2.62 8.822a.137.137 0 1 0-.048.27l1.235.219a.137.137 0 1 0 .048-.27m-.138 1.223H2.463a.138.138 0 1 0 0 .276h1.253c.075 0 .138-.06.138-.138a.137.137 0 0 0-.138-.138m.081 1.233-1.235.218a.135.135 0 0 0-.11.16.135.135 0 0 0 .158.11l1.235-.219a.135.135 0 0 0 .111-.159.14.14 0 0 0-.159-.11m.291 1.199-1.178.428a.136.136 0 0 0-.081.177.136.136 0 0 0 .177.081l1.178-.428a.136.136 0 0 0 .08-.177.137.137 0 0 0-.176-.081m.495 1.127-1.086.627a.14.14 0 0 0-.05.189.14.14 0 0 0 .188.05l1.086-.626a.14.14 0 0 0 .05-.189.14.14 0 0 0-.188-.051m.683 1.028-.96.807a.137.137 0 0 0-.017.192.137.137 0 0 0 .192.018l.96-.807a.137.137 0 0 0 .017-.192c-.045-.06-.132-.066-.192-.018m.852.89-.807.96a.135.135 0 0 0 .018.192.135.135 0 0 0 .192-.018l.807-.96a.135.135 0 0 0-.018-.191.14.14 0 0 0-.192.018m.995.732-.627 1.085a.134.134 0 0 0 .051.186.14.14 0 0 0 .19-.05l.626-1.086a.135.135 0 0 0-.051-.186.14.14 0 0 0-.189.051m1.106.549L7.791 18.2a.14.14 0 0 0 .08.177.14.14 0 0 0 .177-.081l.43-1.178a.14.14 0 0 0-.082-.177.135.135 0 0 0-.177.08m1.077 1.739a.137.137 0 0 0 .158-.111l.22-1.235a.137.137 0 1 0-.27-.048l-.22 1.235a.135.135 0 0 0 .112.159m1.469.135c.074 0 .137-.06.137-.138v-1.253a.14.14 0 0 0-.137-.138.137.137 0 0 0-.138.138v1.253a.14.14 0 0 0 .138.138m1.094-1.472.219 1.235a.135.135 0 0 0 .159.11.135.135 0 0 0 .11-.158l-.218-1.235a.135.135 0 0 0-.16-.111.137.137 0 0 0-.11.159m1.2-.291.428 1.178a.137.137 0 0 0 .177.081.136.136 0 0 0 .08-.177l-.428-1.178a.136.136 0 0 0-.177-.081.136.136 0 0 0-.08.177m1.13-.495.626 1.085a.14.14 0 0 0 .189.051.14.14 0 0 0 .05-.189l-.629-1.085a.14.14 0 0 0-.189-.05.137.137 0 0 0-.048.188m1.025-.686.806.959a.137.137 0 0 0 .192.018.137.137 0 0 0 .018-.192l-.806-.96a.137.137 0 0 0-.192-.017.135.135 0 0 0-.018.192m.89-.852.96.807a.135.135 0 0 0 .191-.018.135.135 0 0 0-.018-.192l-.96-.807a.135.135 0 0 0-.191.018.14.14 0 0 0 .018.192m.732-.992 1.085.626a.138.138 0 0 0 .179-.202.1.1 0 0 0-.041-.034l-1.085-.627a.14.14 0 0 0-.19.05.14.14 0 0 0 .052.187M17.383 13l1.178.43a.14.14 0 0 0 .177-.082.14.14 0 0 0-.08-.177l-1.179-.428a.14.14 0 0 0-.177.08.136.136 0 0 0 .081.178m.345-1.184 1.235.22a.137.137 0 0 0 .159-.112.137.137 0 0 0-.11-.159l-1.236-.219a.137.137 0 1 0-.048.27m0-1.36c0 .074.06.137.138.137h1.253c.075 0 .138-.06.138-.138a.14.14 0 0 0-.138-.138h-1.253a.136.136 0 0 0-.138.138m.057-1.095 1.235-.219a.135.135 0 0 0 .111-.159.135.135 0 0 0-.159-.11l-1.235.218a.135.135 0 0 0-.111.16.137.137 0 0 0 .159.11m-.29-1.2 1.177-.428a.136.136 0 0 0 .081-.177.136.136 0 0 0-.177-.08l-1.178.428a.136.136 0 0 0-.08.177.14.14 0 0 0 .176.08M17 7.033l1.085-.626a.14.14 0 0 0 .05-.186.14.14 0 0 0-.188-.05l-1.085.626a.14.14 0 0 0-.051.189.14.14 0 0 0 .188.048m-.687-1.025.96-.806a.137.137 0 0 0 .017-.192.137.137 0 0 0-.192-.018l-.959.806a.137.137 0 0 0-.018.192c.048.06.135.066.192.018m-.851-.893.806-.96a.135.135 0 0 0-.018-.191.135.135 0 0 0-.192.018l-.806.959a.135.135 0 0 0 .018.192.135.135 0 0 0 .191-.018m-.993-.729.627-1.085a.133.133 0 0 0-.051-.186.14.14 0 0 0-.19.051L14.23 4.25a.134.134 0 0 0 .051.186.14.14 0 0 0 .19-.05m-1.106-.548.429-1.179a.14.14 0 0 0-.081-.176.14.14 0 0 0-.177.08l-.429 1.182a.14.14 0 0 0 .081.177.14.14 0 0 0 .177-.084m-1.343-.234a.137.137 0 0 0 .159-.111l.219-1.235a.137.137 0 0 0-.111-.16.137.137 0 0 0-.16.112l-.218 1.235a.14.14 0 0 0 .11.159M5.392 5.132a.15.15 0 0 0 .21 0 .15.15 0 0 0 0-.21l-.495-.495a.15.15 0 0 0-.21 0 .15.15 0 0 0 0 .21zm-.836 1.016c.069.048.162.03.207-.036a.15.15 0 0 0-.036-.207l-.573-.401a.15.15 0 0 0-.207.036.15.15 0 0 0 .036.206zM3.273 7l.635.296a.147.147 0 0 0 .198-.072.147.147 0 0 0-.072-.197l-.636-.297a.147.147 0 0 0-.197.072.147.147 0 0 0 .072.198m.272 1.253-.677-.18a.15.15 0 0 0-.183.105.15.15 0 0 0 .105.183l.677.18a.15.15 0 0 0 .183-.105.15.15 0 0 0-.105-.183m-.27 1.289-.698-.06a.15.15 0 0 0-.162.135.15.15 0 0 0 .135.162l.699.06a.15.15 0 0 0 .161-.135.15.15 0 0 0-.134-.162m-.038 1.319-.699.06a.15.15 0 0 0-.135.162.15.15 0 0 0 .162.135l.699-.06a.15.15 0 0 0 .134-.162.15.15 0 0 0-.161-.135m.23 1.304-.677.18a.147.147 0 0 0-.105.183c.021.08.102.126.183.105l.677-.18a.147.147 0 0 0 .105-.183.15.15 0 0 0-.183-.105m.372 1.253-.635.297a.15.15 0 0 0-.072.198.15.15 0 0 0 .198.072l.635-.297a.15.15 0 0 0 .072-.198.15.15 0 0 0-.198-.072m.627 1.164-.573.401a.146.146 0 0 0-.036.207c.048.07.141.084.207.036l.573-.402a.146.146 0 0 0 .036-.207.146.146 0 0 0-.207-.036m1.802 1.912-.402.573a.15.15 0 0 0 .036.207c.069.048.162.03.207-.036l.401-.573a.15.15 0 0 0-.036-.207.146.146 0 0 0-.206.036m.896 1.526a.147.147 0 0 0 .198-.072l.297-.635a.147.147 0 0 0-.072-.198.147.147 0 0 0-.198.072l-.297.635a.15.15 0 0 0 .072.198m1.373.516a.15.15 0 0 0 .183-.105l.18-.678a.15.15 0 0 0-.105-.183.15.15 0 0 0-.183.105l-.18.678a.15.15 0 0 0 .105.183m1.442.267a.15.15 0 0 0 .162-.135l.06-.699a.15.15 0 0 0-.135-.162.15.15 0 0 0-.162.135l-.06.699a.15.15 0 0 0 .135.162m1.244-.819.06.699a.15.15 0 0 0 .162.135.15.15 0 0 0 .135-.162l-.06-.699a.15.15 0 0 0-.162-.135.15.15 0 0 0-.135.162m1.304-.192.18.678a.147.147 0 0 0 .183.105.147.147 0 0 0 .105-.183l-.18-.678a.147.147 0 0 0-.183-.104.15.15 0 0 0-.105.182m1.254-.413.296.635a.15.15 0 0 0 .198.072.15.15 0 0 0 .072-.198l-.297-.635a.15.15 0 0 0-.198-.072.15.15 0 0 0-.071.198m1.163-.624.401.573a.147.147 0 0 0 .207.036.146.146 0 0 0 .036-.207l-.401-.573a.146.146 0 0 0-.207-.036.146.146 0 0 0-.036.207m1.034-.818.495.494a.15.15 0 0 0 .21 0 .15.15 0 0 0 0-.21l-.495-.494a.15.15 0 0 0-.21 0 .15.15 0 0 0 0 .21m.879-.984.572.402c.07.048.162.03.207-.036a.15.15 0 0 0-.036-.207l-.573-.402a.15.15 0 0 0-.206.036.146.146 0 0 0 .035.207m.692-1.121.636.297a.147.147 0 0 0 .198-.072.147.147 0 0 0-.072-.198l-.636-.297a.147.147 0 0 0-.198.072.15.15 0 0 0 .072.198m.489-1.226.677.18a.15.15 0 0 0 .183-.105.15.15 0 0 0-.105-.183l-.677-.18a.15.15 0 0 0-.183.105.147.147 0 0 0 .105.183m.267-1.292.698.06a.15.15 0 0 0 .162-.135.15.15 0 0 0-.135-.162l-.698-.06a.149.149 0 1 0-.027.297m.041-1.316.7-.06a.15.15 0 0 0 .134-.162.15.15 0 0 0-.162-.135l-.698.06a.15.15 0 0 0-.135.162.15.15 0 0 0 .162.135m-.191-1.308.677-.18a.147.147 0 0 0 .105-.182.147.147 0 0 0-.183-.105l-.677.18a.147.147 0 0 0-.105.182c.02.081.105.126.183.105m-.414-1.25.636-.297a.15.15 0 0 0 .072-.197.15.15 0 0 0-.198-.072l-.636.296a.15.15 0 0 0-.072.198c.036.072.123.105.198.072m-.624-1.163.573-.402a.146.146 0 0 0 .036-.207.146.146 0 0 0-.207-.036l-.572.402a.146.146 0 0 0-.037.207.15.15 0 0 0 .207.036m-1.801-1.913.401-.572a.15.15 0 0 0-.036-.207.15.15 0 0 0-.206.036l-.402.572a.15.15 0 0 0 .036.207.146.146 0 0 0 .207-.036m-.897-1.526a.147.147 0 0 0-.198.072l-.296.636a.147.147 0 0 0 .071.198.147.147 0 0 0 .198-.072l.297-.636a.15.15 0 0 0-.072-.198m-1.376-.515a.15.15 0 0 0-.183.105l-.18.677a.15.15 0 0 0 .105.183.15.15 0 0 0 .183-.105l.18-.677a.147.147 0 0 0-.105-.183m-1.529.728a.15.15 0 0 0 .162-.135l.06-.698a.15.15 0 0 0-.135-.162.15.15 0 0 0-.162.135l-.06.698a.15.15 0 0 0 .135.162m-1.379-1.01a.15.15 0 0 0-.135.162l.06.698a.15.15 0 0 0 .162.135.15.15 0 0 0 .135-.162l-.06-.698a.15.15 0 0 0-.162-.135m-1.262.348a.147.147 0 0 0-.183-.105.147.147 0 0 0-.105.183l.18.677a.147.147 0 0 0 .183.105.147.147 0 0 0 .105-.183zm-1.07 1.088-.297-.636a.15.15 0 0 0-.198-.072.15.15 0 0 0-.072.198l.294.639a.15.15 0 0 0 .198.072.155.155 0 0 0 .075-.201m-1.407.797c.048.07.141.084.207.036a.146.146 0 0 0 .036-.207l-.401-.572a.146.146 0 0 0-.207-.036.146.146 0 0 0-.036.207z"/></svg>