<svg xmlns="http://www.w3.org/2000/svg" fill="none" class="design-iconfont" viewBox="0 0 21 21"><g clip-path="url(#a)"><path fill="#138BFC" d="M9.152 2.406a7.7 7.7 0 0 1 2.864-.024 7.64 7.64 0 0 1 4.947 3.235 7.62 7.62 0 0 1 .333 7.973 2 2 0 0 0-.78-.203 2.6 2.6 0 0 0-2.035-2.333c.111-.413.178-.84.16-1.268a3.9 3.9 0 0 0-.239-1.236 3.94 3.94 0 0 0-1.266-1.76 3.99 3.99 0 0 0-4.077-.524 3.98 3.98 0 0 0-2.255 4.633c.18.72.568 1.385 1.107 1.895.334.322.727.582 1.152.768a2.29 2.29 0 0 0 .595 3.7c.233.116.487.183.744.22-.257.005-.513-.027-.768-.057a7.63 7.63 0 0 1-5.32-3.317 7.65 7.65 0 0 1-1.255-3.58 7.7 7.7 0 0 1 .116-2.133 7.6 7.6 0 0 1 1.617-3.39A7.6 7.6 0 0 1 7.27 3.05a7.7 7.7 0 0 1 1.882-.644"/><path fill="#F2FAFF" d="M12.574 11.376a2.6 2.6 0 0 1 1.908-.322 2.6 2.6 0 0 1 2.035 2.333 2.05 2.05 0 0 1 1.726 1.146 2.054 2.054 0 0 1-.974 2.765c-.244.12-.512.174-.78.199q-2.685-.003-5.37-.002c-.24-.002-.48.015-.717-.013a2.4 2.4 0 0 1-.744-.22 2.29 2.29 0 0 1 1.734-4.23 2.6 2.6 0 0 1 1.182-1.656"/></g><defs><clipPath id="a"><path fill="#fff" d="M.792.43h20v20h-20z"/></clipPath></defs></svg>