<svg xmlns="http://www.w3.org/2000/svg" fill="none" class="design-iconfont" viewBox="0 0 21 21"><g clip-path="url(#a)"><g clip-path="url(#b)"><path fill="#387DFE" d="M.792 10.43a10 10 0 1 0 20 0 10 10 0 0 0-20 0"/><path fill="#fff" d="M6.532 6.962q.782.444 1.636.722a9 9 0 0 0-.467 2.478H5.264a5.66 5.66 0 0 1 1.268-3.2m3.07-1.921a9 9 0 0 0-1.138 1.885 8 8 0 0 1-1.344-.573 5.7 5.7 0 0 1 2.482-1.311zm5.142 1.312q-.647.347-1.344.573a9 9 0 0 0-1.138-1.885 5.7 5.7 0 0 1 2.483 1.312m.588.61a5.66 5.66 0 0 1 1.272 3.199H14.17a9 9 0 0 0-.468-2.478 9 9 0 0 0 1.636-.722zm0 7.21a9 9 0 0 0-1.637-.721c.272-.8.43-1.634.468-2.478H16.6a5.66 5.66 0 0 1-1.267 3.2m-1.933.036q.698.226 1.345.573a5.7 5.7 0 0 1-2.482 1.312A9 9 0 0 0 13.4 14.21m-2.875-.38v2.102a8.2 8.2 0 0 1-1.262-1.934 8 8 0 0 1 1.264-.166zm0-2.855v2.045a9 9 0 0 0-1.572.215 8 8 0 0 1-.442-2.26zM9.262 7.137c.327-.7.752-1.352 1.262-1.934v2.102a8 8 0 0 1-1.262-.167zm1.262.98v2.044H8.51a8 8 0 0 1 .44-2.26q.778.177 1.574.215m.813-.813V5.205A8.2 8.2 0 0 1 12.6 7.139a8 8 0 0 1-1.261.166zm0 2.857V8.116a9 9 0 0 0 1.573-.215 8.1 8.1 0 0 1 .44 2.26zm1.263 3.836a8.2 8.2 0 0 1-1.263 1.934v-2.1q.639.035 1.265.169zm-1.263-.98v-2.044h2.015a8.1 8.1 0 0 1-.442 2.26 9 9 0 0 0-1.571-.214zm-4.22 1.765q.648-.347 1.346-.574a9 9 0 0 0 1.139 1.885 5.7 5.7 0 0 1-2.483-1.312zm-.586-.61a5.66 5.66 0 0 1-1.273-3.199h2.435c.039.844.197 1.678.469 2.478a9 9 0 0 0-1.637.721zm9.49.434a6.497 6.497 0 1 0-10.18-8.079 6.498 6.498 0 1 0 10.18 8.08"/></g></g><defs><clipPath id="a"><path fill="#fff" d="M.792.43h20v20h-20z"/></clipPath><clipPath id="b"><path fill="#fff" d="M.792.43h20v20h-20z"/></clipPath></defs></svg>