<svg xmlns="http://www.w3.org/2000/svg" fill="none" class="design-iconfont" viewBox="0 0 21 21"><g clip-path="url(#a)"><path fill="#fff" d="M3.514 10.43a7.6 7.6 0 1 0 15.2 0 7.6 7.6 0 0 0-15.2 0"/><path fill="#7FCE46" d="M4.264 16.493c-.675-.675-.475-2.075.388-3.763a6.9 6.9 0 0 0 2.925 3.563c-1.488.675-2.725.787-3.313.2M16.79 3.98c.538.538.5 1.488.05 2.725-.762-1.175-1.875-2.075-3.2-2.612 1.413-.625 2.563-.713 3.15-.113M8.227 9.393a2.9 2.9 0 0 1 2.887-2.725c1.538 0 2.813 1.212 2.888 2.725zm6.037 1.825h3.675c.025-.25.025-.5.025-.788a6.75 6.75 0 0 0-.925-3.425c.613-1.6.588-2.975-.225-3.787-.762-.788-2.837-.65-5.162.387-.163 0-.338-.025-.538-.025-3.2 0-5.9 2.213-6.65 5.188C5.477 7.48 6.54 6.555 7.94 5.88c-.137.113-.875.875-1.012.988-3.725 3.725-4.9 8.587-3.638 9.85.95.95 2.7.787 4.713-.163.925.475 1.987.725 3.112.725 3 0 5.563-1.937 6.488-4.637h-3.7c-.5.95-1.513 1.575-2.663 1.575s-2.137-.65-2.662-1.575a3.1 3.1 0 0 1-.363-1.438h6.05z"/></g><defs><clipPath id="a"><path fill="#fff" d="M2.651 2.43h16.282v16H2.65z"/></clipPath></defs></svg>