<svg xmlns="http://www.w3.org/2000/svg" fill="none" class="design-iconfont" viewBox="0 0 21 21"><g clip-path="url(#a)"><path fill="#0F5197" d="M17.225 14.332q-.317.17-.656.293a6.4 6.4 0 0 1-2.243.406c-2.955 0-5.53-2.03-5.53-4.642a1.96 1.96 0 0 1 1.025-1.705c-2.674.112-3.361 2.899-3.361 4.53 0 4.617 4.255 5.085 5.173 5.085.494 0 1.237-.143 1.687-.287l.081-.025a8 8 0 0 0 4.162-3.3.25.25 0 0 0-.205-.384.26.26 0 0 0-.133.029"/><path fill="#0C88DA" d="M9.396 17.513a5 5 0 0 1-1.418-1.331A5.043 5.043 0 0 1 9.82 8.684a2.1 2.1 0 0 1 .968-.25 2.04 2.04 0 0 1 1.606.812c.253.338.392.747.4 1.169 0-.013 1.53-4.974-4.998-4.974-2.743 0-4.999 2.606-4.999 4.886a8.15 8.15 0 0 0 .756 3.5 8 8 0 0 0 9.772 4.192 4.74 4.74 0 0 1-3.93-.506"/><path fill="#2CC3D5" d="M12.308 11.733c-.05.063-.207.156-.207.356 0 .163.107.319.294.45.9.625 2.593.544 2.6.544a3.73 3.73 0 0 0 1.892-.519 3.83 3.83 0 0 0 1.9-3.305c.018-1.4-.5-2.33-.706-2.743a6.9 6.9 0 0 0-1.309-1.779 7.7 7.7 0 0 0-2.229-1.517 9.1 9.1 0 0 0-3.754-.79 7.997 7.997 0 0 0-7.997 7.885c.031-2.28 2.3-4.124 4.998-4.124.219 0 1.469.019 2.625.631 1.018.537 1.555 1.181 1.924 1.825.387.668.456 1.505.456 1.843 0 .337-.169.83-.487 1.243"/><path fill="#49D668" d="M12.941 2.666s5.823 6.018-.758 9.27c0 0-.426.706 1.607 1.072 0 0 3.367.731 4.726-2.227.273-.928.517-2.366-.207-3.966a6.7 6.7 0 0 0-1.202-1.776 8.5 8.5 0 0 0-1.767-1.48c-1.07-.546-2.399-.893-2.399-.893"/></g><defs><clipPath id="a"><path fill="#fff" d="M2.792 2.43h16v16h-16z"/></clipPath></defs></svg>