<svg xmlns="http://www.w3.org/2000/svg" fill="none" class="design-iconfont" viewBox="0 0 21 21"><path fill="#EA4335" d="M4.724 5.216C8.442.89 15.338 1.743 17.916 6.8H11.72c-1.116 0-1.836-.025-2.617.386a3.7 3.7 0 0 0-1.851 2.43z"/><path fill="#4285F4" d="M8.13 10.43a2.66 2.66 0 0 0 2.66 2.66 2.66 2.66 0 0 0 2.658-2.66 2.66 2.66 0 0 0-2.658-2.66 2.66 2.66 0 0 0-2.66 2.66"/><path fill="#34A853" d="M11.821 13.912c-1.492.443-3.238-.049-4.195-1.7-.73-1.26-2.66-4.621-3.537-6.15-3.071 4.707-.424 11.122 5.152 12.217z"/><path fill="#FBBC05" d="M13.259 7.77a3.64 3.64 0 0 1 .672 4.478 1241 1241 0 0 1-3.64 6.165c5.745.354 9.933-5.276 8.041-10.644z"/></svg>