<svg xmlns="http://www.w3.org/2000/svg" fill="none" class="design-iconfont" viewBox="0 0 21 21"><g clip-path="url(#a)"><path fill="#00AFFF" d="M18.078 7.148c.317-.872.46-1.665.428-2.347-.032-.746-.285-1.349-.73-1.792-.888-.873-3.155-.715-5.661.38-.175-.016-.35-.016-.54-.016-.856 0-1.697.143-2.49.428a7.1 7.1 0 0 0-2.141 1.19 7.52 7.52 0 0 0-2.618 4.045l-.142.554.349-.443C5.469 7.957 6.405 7.1 7.498 6.45l-.491.492A17.2 17.2 0 0 0 4.5 10.114a15.8 15.8 0 0 0-1.49 3.156c-.317.984-.492 1.904-.476 2.68.016.794.206 1.397.555 1.746.476.491 1.158.73 1.967.73.888 0 1.967-.286 3.172-.873a7.3 7.3 0 0 0 3.331.777 7.46 7.46 0 0 0 7.058-5.044l.048-.159h-4.203v.032a3.13 3.13 0 0 1-2.744 1.634 3.12 3.12 0 0 1-2.744-1.633 3.2 3.2 0 0 1-.365-1.365h10.373l.016-.11a7.5 7.5 0 0 0-.92-4.537M4.644 13.604a7.44 7.44 0 0 0 2.886 3.505c-.713.301-1.348.475-1.888.507-.586.049-1.03-.095-1.331-.38-.603-.603-.476-1.92.333-3.632M17.697 6.56a7.7 7.7 0 0 0-1.38-1.49 7.2 7.2 0 0 0-1.696-1.048c1.38-.539 2.426-.555 2.965-.016.46.476.508 1.365.112 2.554M8.625 9.622a2.976 2.976 0 0 1 2.95-2.68 2.975 2.975 0 0 1 2.95 2.68z"/></g><defs><clipPath id="a"><path fill="#fff" d="M2.526 2.43h16.532v16H2.526z"/></clipPath></defs></svg>