<svg xmlns="http://www.w3.org/2000/svg" fill="none" class="design-iconfont" viewBox="0 0 21 21"><path fill="#FC7A28" d="M6.225 12.853c.195-1.017.753-1.805 1.572-2.406.5-.368 1.032-.692 1.553-1.03.833-.538 1.53-1.195 1.885-2.15.397-1.065.369-2.103-.354-3.02-.915-1.16-2.151-1.515-3.58-1.26-1.038.187-1.89.725-2.626 1.458a3.7 3.7 0 0 0-.767 1.078l.143-.096a2.1 2.1 0 0 1 1.318-.39 1.59 1.59 0 0 1 1.5 1.532 2.18 2.18 0 0 1-.472 1.419c-.406.523-.843 1.022-1.27 1.528-.92 1.091-1.395 2.332-1.203 3.768.193 1.443.946 2.532 2.224 3.23.806.44 1.69.587 2.643.578-.051-.022-.072-.033-.093-.039-1.831-.504-2.8-2.496-2.473-4.2m7.257-3.528c.741.244 1.41.636 2.089 1.008.713.392 1.464.408 2.232.181.15-.044.212-.126.197-.282-.019-.205-.008-.414-.039-.618-.203-1.353-.934-2.285-2.232-2.747-.163-.058-.215-.148-.263-.302a7 7 0 0 0-.35-.866c-.055-.117-.16-.208-.262-.335-.097.145-.179.252-.245.37-.248.437-.328.92-.346 1.413-.005.151-.045.264-.165.347-.267.185-.521.397-.807.547-.612.32-1.24.608-1.845.901.686-.004 1.365.162 2.036.383m.764 6.684c-.26-.06-.529-.09-.804-.137.014-.052.024-.097.038-.141.202-.641.238-1.29.154-1.958-.28-2.222-2.53-3.554-4.333-3.169-.96.205-1.64.741-2.034 1.639 1.445-1.43 3.606-.994 4.498.242.589.815.75 1.712.448 2.672-.302.962-.996 1.556-1.961 1.927 1.241.035 4.686-.073 5.105-.206-.047-.09-.082-.184-.14-.261-.243-.33-.58-.518-.971-.608m-2.79-1.72c-.009-1.135-.862-2.067-2.058-2.073-1.29-.007-2.078 1.054-2.078 2.069 0 1.086.899 2.078 2.066 2.059 1.146-.001 2.079-.919 2.07-2.056m-2.08.938a.94.94 0 0 1-.938-.952c.002-.515.446-.957.953-.949.514.01.95.446.954.955.004.521-.434.948-.97.946m8.677-2.963c-.103-.406-.388-.631-.772-.727-.267-.067-.545-.093-.82-.128-.75-.097-1.409-.408-2.04-.808-1.27-.805-2.654-1.16-4.155-.984-.26.03-.512.13-.767.197l.013.054c.165 0 .332-.016.495.003.397.047.804.068 1.186.174 1.354.377 2.325 1.25 3.018 2.449.098.171.21.286.4.296.275.015.554.043.824.008q.362-.053.688-.22c.616-.309 1.242-.447 1.917-.188.015-.036.024-.047.023-.057a.4.4 0 0 0-.01-.07"/></svg>