<svg xmlns="http://www.w3.org/2000/svg" fill="none" class="design-iconfont" viewBox="0 0 16 17"><g clip-path="url(#a)"><path fill="#165DFF" d="M9.295 6.292 6.537 9.05l-.707-.707 2.758-2.758zm-2.44 7.495-4.03-4.03.708-.707 4.03 4.03z"/><path stroke="#165DFF" d="M7.173 13.374a.5.5 0 0 1-.292.143l-3.982.489a.5.5 0 0 1-.557-.557l.49-3.982a.5.5 0 0 1 .142-.293L9.74 2.41a.5.5 0 0 1 .707 0l3.492 3.49a.5.5 0 0 1 0 .707z"/></g><defs><clipPath id="a"><path fill="#fff" d="M0 .175h16v16H0z"/></clipPath></defs></svg>