<svg xmlns="http://www.w3.org/2000/svg" fill="none" class="design-iconfont" viewBox="0 0 191 123"><rect width="190" height="120" x=".5" y=".077" fill="#F4F6FB" rx="4"/><path fill="#E0E4EF" d="M15.182 69.361H179.17v4.838H15.18zm163.989-39.168h-48v27.461h48zM15.182 79.748H179.17v4.838H15.18zm0 10.299H179.17v4.838H15.18zm0 10.299H179.17v4.838H15.18z"/><path fill="#1B7CFF" d="M.5 4.077a4 4 0 0 1 4-4h182a4 4 0 0 1 4 4v9.486H.5z" opacity=".8"/><g filter="url(#a)"><rect width="69.449" height="36.455" x="34.393" y="78.359" fill="#fff" fill-opacity=".4" rx="4"/><rect width="68.449" height="35.455" x="34.893" y="78.859" stroke="#fff" rx="3.5"/></g><rect width="63.655" height="71.227" x="61.266" y="33.721" stroke="#69B7FF" stroke-dasharray="3 4" rx="3.5"/><g filter="url(#b)"><rect width="64.655" height="72.227" x="71.766" y="24.221" fill="#fff" rx="4"/><rect width="64.655" height="72.227" x="71.766" y="24.221" fill="url(#c)" fill-opacity=".6" rx="4"/><rect width="63.655" height="71.227" x="72.266" y="24.721" stroke="#fff" rx="3.5"/></g><path fill="#E3EEFA" d="M81.11 54.88h45.464v3.762H81.11zm0-7.16h19.665V34.445H81.11zm0 17.019h45.464V68.5H81.11zm0 9.859h17.256v3.761H81.109z"/><g filter="url(#d)"><path fill="url(#e)" d="M123.372 80.222c1.542-2.484 5.336-2.484 6.877 0l12.678 20.429c1.562 2.517-.355 5.689-3.439 5.689h-25.355c-3.084 0-5.001-3.172-3.439-5.689z"/><path stroke="#FFE9D3" d="M123.797 80.486c1.346-2.17 4.682-2.17 6.028 0l12.677 20.428c1.33 2.143-.272 4.926-3.014 4.926h-25.355c-2.742 0-4.344-2.783-3.014-4.926z"/></g><path fill="url(#f)" stroke="#FFE9D3" d="M121.199 62.517c2.134-3.439 7.409-3.439 9.543 0l19.159 30.872c2.128 3.429-.454 7.833-4.772 7.833h-38.317c-4.318 0-6.9-4.404-4.772-7.833z"/><path fill="#fff" d="M123.937 75.208a2.044 2.044 0 1 1 4.067 0l-.923 9.086a1.117 1.117 0 0 1-2.221 0zm2.033 12.741a2.007 2.007 0 1 0 0 4.015 2.007 2.007 0 1 0 0-4.015"/><path fill="#FA2121" d="M9.176 5.022a1.798 1.798 0 1 0 0 3.596 1.798 1.798 0 1 0 0-3.596"/><path fill="#F5C51C" d="M16.98 5.022a1.798 1.798 0 1 0 0 3.596 1.798 1.798 0 1 0 0-3.596"/><path fill="#1EE97B" d="M24.783 5.022a1.798 1.798 0 1 0 0 3.596 1.798 1.798 0 1 0 0-3.596"/><path fill="#E9ECF4" d="M32.19 26.059a17.009 17.009 0 1 0 0 34.018 17.009 17.009 0 1 0 0-34.018"/><path fill="#72ADFD" d="M32.19 26.059a17.01 17.01 0 1 1-17.008 17.009H32.19z" opacity=".5"/><defs><linearGradient id="c" x1="104.093" x2="104.093" y1="24.221" y2="96.448" gradientUnits="userSpaceOnUse"><stop offset=".535" stop-color="#fff"/><stop offset="1" stop-color="#DCEAF9"/></linearGradient><linearGradient id="e" x1="126.811" x2="126.811" y1="78.359" y2="106.34" gradientUnits="userSpaceOnUse"><stop stop-color="#FFE9BE"/><stop offset="1" stop-color="#FC993D"/></linearGradient><linearGradient id="f" x1="125.97" x2="125.97" y1="59.438" y2="101.722" gradientUnits="userSpaceOnUse"><stop stop-color="#FFE9BE"/><stop offset="1" stop-color="#FC993D"/></linearGradient><filter id="a" width="77.449" height="44.455" x="30.393" y="74.359" color-interpolation-filters="sRGB" filterUnits="userSpaceOnUse"><feFlood flood-opacity="0" result="BackgroundImageFix"/><feGaussianBlur in="BackgroundImageFix" stdDeviation="2"/><feComposite in2="SourceAlpha" operator="in" result="effect1_backgroundBlur_39_7479"/><feBlend in="SourceGraphic" in2="effect1_backgroundBlur_39_7479" result="shape"/></filter><filter id="b" width="80.655" height="88.227" x="63.766" y="18.221" color-interpolation-filters="sRGB" filterUnits="userSpaceOnUse"><feFlood flood-opacity="0" result="BackgroundImageFix"/><feColorMatrix in="SourceAlpha" result="hardAlpha" values="0 0 0 0 0 0 0 0 0 0 0 0 0 0 0 0 0 0 127 0"/><feOffset dy="2"/><feGaussianBlur stdDeviation="4"/><feComposite in2="hardAlpha" operator="out"/><feColorMatrix values="0 0 0 0 0.450964 0 0 0 0 0.520921 0 0 0 0 0.585497 0 0 0 0.2 0"/><feBlend in2="BackgroundImageFix" result="effect1_dropShadow_39_7479"/><feBlend in="SourceGraphic" in2="effect1_dropShadow_39_7479" result="shape"/></filter><filter id="d" width="65.344" height="59.98" x="94.139" y="62.359" color-interpolation-filters="sRGB" filterUnits="userSpaceOnUse"><feFlood flood-opacity="0" result="BackgroundImageFix"/><feBlend in="SourceGraphic" in2="BackgroundImageFix" result="shape"/><feGaussianBlur result="effect1_foregroundBlur_39_7479" stdDeviation="8"/></filter></defs></svg>