<svg xmlns="http://www.w3.org/2000/svg" width="190" height="170" fill="none"><mask id="a" width="190" height="170" x="0" y="0" maskUnits="userSpaceOnUse" style="mask-type:alpha"><path fill="#D9D9D9" d="M0 0h190v170H0z"/></mask><g mask="url(#a)"><g filter="url(#b)"><ellipse cx="95" cy="84.706" fill="url(#c)" fill-opacity=".8" rx="65" ry="64.706" shape-rendering="crispEdges"/></g><g filter="url(#d)"><rect width="146" height="98" x="22" y="35" fill="#fff" rx="3.065"/><rect width="146" height="98" x="22" y="35" fill="url(#e)" rx="3.065"/></g><rect width="101" height="6" x="58" y="78.706" fill="#EEF2F6" opacity=".7" rx="1.022"/><rect width="101" height="6" x="58" y="90.706" fill="#EEF2F6" opacity=".7" rx="1.022"/><rect width="101" height="6" x="58" y="102.706" fill="#EEF2F6" opacity=".7" rx="1.022"/><rect width="101" height="6" x="58" y="114.706" fill="#EEF2F6" opacity=".7" rx="1.022"/><rect width="101" height="6" x="58" y="54.706" fill="#EEF2F6" opacity=".7" rx="1.022"/><rect width="101" height="6" x="58" y="66.706" fill="#EEF2F6" opacity=".7" rx="1.022"/><rect width="9.254" height="4.083" x="66.193" y="39.46" fill="#ADBACC" opacity=".499" rx="2.042"/><path fill="#F2F4F6" d="M22 44.188h28.789V133h-25.19C23.61 133 22 131.629 22 129.938z"/><rect width="26.732" height="8.167" x="23.028" y="54.907" fill="#06F" fill-opacity=".16" rx="1.022"/><rect width="20.563" height="3.063" x="26.112" y="57.458" fill="#176DE6" rx=".511"/><path fill="#176DE6" d="M23.028 57.458h.223c.286 0 .429 0 .538.056a.5.5 0 0 1 .223.223c.056.11.056.252.056.538v1.428c0 .286 0 .43-.056.539a.5.5 0 0 1-.223.223c-.11.055-.252.055-.538.055h-.141c-.029 0-.043 0-.054-.005a.05.05 0 0 1-.022-.022c-.006-.011-.006-.026-.006-.054z"/><rect width="14.394" height="3.063" x="26.112" y="49.291" fill="#D8E0EB" rx=".511"/><rect width="14.394" height="3.063" x="26.112" y="65.625" fill="#D8E0EB" rx=".511"/><rect width="14.394" height="3.063" x="26.112" y="73.792" fill="#D8E0EB" rx=".511"/><rect width="14.394" height="3.063" x="26.112" y="81.958" fill="#D8E0EB" rx=".511"/><rect width="14.394" height="3.063" x="26.112" y="90.125" fill="#D8E0EB" rx=".511"/><rect width="14.394" height="3.063" x="26.112" y="98.292" fill="#D8E0EB" rx=".511"/><rect width="12.338" height="3.063" x="26.112" y="126.875" fill="#D8E0EB" rx=".511"/><ellipse cx="27.655" cy="39.594" fill="#fff" opacity=".747" rx="1.542" ry="1.531"/><ellipse cx="33.824" cy="39.594" fill="#fff" opacity=".747" rx="1.542" ry="1.531"/><ellipse cx="39.993" cy="39.594" fill="#fff" opacity=".747" rx="1.542" ry="1.531"/><g filter="url(#f)"><path fill="#fff" d="M22 38.065A3.064 3.064 0 0 1 25.064 35h139.871A3.065 3.065 0 0 1 168 38.065v8.164H22z"/><path fill="url(#g)" d="M22 38.065A3.064 3.064 0 0 1 25.064 35h139.871A3.065 3.065 0 0 1 168 38.065v8.164H22z"/></g><rect width="21.592" height="3.063" x="30.226" y="39.083" fill="#CFD8E5" opacity=".7" rx="1.022"/><rect width="8.225" height="3.063" x="151.549" y="39.083" fill="#CFD8E5" opacity=".7" rx="1.022"/><circle cx="44.581" cy="25.29" r="1.935" fill="#D9E8FD"/><circle cx="49.097" cy="22.064" r="1.29" fill="#D9E8FD"/><circle cx="178.129" cy="96.903" r="3.871" fill="#D9E8FD"/><circle cx="176.839" cy="86.581" r="1.29" fill="#D9E8FD"/><g filter="url(#h)"><rect width="76" height="88" x="100" y="53" fill="#fff" rx="3.065"/><rect width="76" height="88" x="100" y="53" fill="url(#i)" rx="3.065"/><rect width="76" height="88" x="100" y="53" fill="#F5F7FA" rx="3.065"/><rect width="76" height="88" x="100" y="53" stroke="#E6E9ED" rx="3.065"/></g><rect width="64" height="21" x="106" y="60.706" fill="#fff" rx="2"/><rect width="9" height="9" x="110" y="64.206" fill="#3AC27D" opacity=".15" rx="2"/><path fill="#30B471" fill-rule="evenodd" d="M116.96 66.175h-4.92a.33.33 0 0 0-.255.1.35.35 0 0 0-.097.262v4.338a.35.35 0 0 0 .097.262c.067.07.16.105.255.1h4.92a.33.33 0 0 0 .255-.1.35.35 0 0 0 .097-.262v-4.338a.35.35 0 0 0-.097-.262.33.33 0 0 0-.255-.1m-2.46 3.615h-1.757v-.723h1.757zm-1.757-1.446h3.514v-.723h-3.514z" clip-rule="evenodd"/><rect width="3" height="3" x="109" y="75.706" fill="#E6E9ED" fill-opacity=".8" rx=".5"/><rect width="3" height="3" x="114" y="75.706" fill="#E6E9ED" fill-opacity=".8" rx=".5"/><rect width="3" height="3" x="119" y="75.706" fill="#E6E9ED" fill-opacity=".8" rx=".5"/><rect width="3" height="3" x="124" y="75.706" fill="#E6E9ED" fill-opacity=".8" rx=".5"/><rect width="3" height="3" x="129" y="75.706" fill="#E6E9ED" fill-opacity=".8" rx=".5"/><rect width="3" height="3" x="134" y="75.706" fill="#E6E9ED" fill-opacity=".8" rx=".5"/><rect width="3" height="3" x="164" y="75.706" fill="#DADFE6" rx=".5"/><path fill="#ADBACC" d="M123 65.706a1 1 0 0 1 1-1h16a1 1 0 0 1 1 1v1a1 1 0 0 1-1 1h-16a1 1 0 0 1-1-1z" opacity=".498"/><path fill="#E8EBF1" d="M123 70.706a1 1 0 0 1 1-1h42a1 1 0 0 1 1 1v1a1 1 0 0 1-1 1h-42a1 1 0 0 1-1-1z"/><rect width="64" height="21" x="106" y="86.706" fill="#fff" rx="2"/><rect width="9" height="9" x="110" y="90.206" fill="#1A78FF" opacity=".15" rx="2"/><path fill="#0070FF" d="m117.424 96.28-.33-.117-2.241.808a1.04 1.04 0 0 1-.703 0l-2.244-.808-.33.118a.26.26 0 0 0-.17.24c0 .108.068.204.17.24l2.836 1.023a.26.26 0 0 0 .176 0l2.836-1.022a.26.26 0 0 0 .17-.24.26.26 0 0 0-.17-.241z"/><path fill="#0070FF" d="m117.424 94.747-.33-.118-2.241.807a1.04 1.04 0 0 1-.703 0l-2.244-.807-.33.118a.26.26 0 0 0-.17.24c0 .108.068.204.17.24l2.836 1.023a.26.26 0 0 0 .176 0l2.836-1.023a.26.26 0 0 0 .17-.24.26.26 0 0 0-.17-.24"/><path fill="#0070FF" d="m117.424 93.213-2.836-1.023a.26.26 0 0 0-.176 0l-2.836 1.023a.26.26 0 0 0-.17.24c0 .108.068.204.17.24l2.836 1.023a.26.26 0 0 0 .176 0l2.836-1.023a.26.26 0 0 0 .17-.24.26.26 0 0 0-.17-.24"/><rect width="3" height="3" x="109" y="101.706" fill="#E6E9ED" fill-opacity=".8" rx=".5"/><rect width="3" height="3" x="114" y="101.706" fill="#E6E9ED" fill-opacity=".8" rx=".5"/><rect width="3" height="3" x="119" y="101.706" fill="#E6E9ED" fill-opacity=".8" rx=".5"/><rect width="3" height="3" x="124" y="101.706" fill="#E6E9ED" fill-opacity=".8" rx=".5"/><rect width="3" height="3" x="129" y="101.706" fill="#E6E9ED" fill-opacity=".8" rx=".5"/><rect width="3" height="3" x="134" y="101.706" fill="#E6E9ED" fill-opacity=".8" rx=".5"/><rect width="3" height="3" x="164" y="101.706" fill="#DADFE6" rx=".5"/><path fill="#ADBACC" d="M123 91.706a1 1 0 0 1 1-1h20a1 1 0 0 1 1 1v1a1 1 0 0 1-1 1h-20a1 1 0 0 1-1-1z" opacity=".498"/><path fill="#E8EBF1" d="M123 96.706a1 1 0 0 1 1-1h38a1 1 0 0 1 1 1v1a1 1 0 0 1-1 1h-38a1 1 0 0 1-1-1z" opacity=".498"/><rect width="64" height="21" x="106" y="112.706" fill="#fff" rx="2"/><rect width="9" height="9" x="110" y="116.206" fill="#904EE2" opacity=".15" rx="2"/><path fill="#9046EB" d="M116.708 120.306a.45.45 0 0 0-.408-.25h-1.585l.653-1.57a.424.424 0 0 0-.188-.532.46.46 0 0 0-.576.095l-2.25 2.596a.42.42 0 0 0-.062.461.46.46 0 0 0 .408.249h1.585l-.653 1.57a.424.424 0 0 0 .188.532.46.46 0 0 0 .576-.094l2.25-2.597a.42.42 0 0 0 .062-.46"/><rect width="3" height="3" x="109" y="127.706" fill="#E6E9ED" fill-opacity=".8" rx=".5"/><rect width="3" height="3" x="114" y="127.706" fill="#E6E9ED" fill-opacity=".8" rx=".5"/><rect width="3" height="3" x="119" y="127.706" fill="#E6E9ED" fill-opacity=".8" rx=".5"/><rect width="3" height="3" x="124" y="127.706" fill="#E6E9ED" fill-opacity=".8" rx=".5"/><rect width="3" height="3" x="129" y="127.706" fill="#E6E9ED" fill-opacity=".8" rx=".5"/><rect width="3" height="3" x="134" y="127.706" fill="#E6E9ED" fill-opacity=".8" rx=".5"/><rect width="3" height="3" x="164" y="127.706" fill="#DADFE6" rx=".5"/><path fill="#ADBACC" d="M123 117.706a1 1 0 0 1 1-1h20a1 1 0 0 1 1 1v1a1 1 0 0 1-1 1h-20a1 1 0 0 1-1-1z" opacity=".498"/><path fill="#E8EBF1" d="M123 122.706a1 1 0 0 1 1-1h38a1 1 0 0 1 1 1v1a1 1 0 0 1-1 1h-38a1 1 0 0 1-1-1z" opacity=".498"/></g><defs><linearGradient id="c" x1="166.5" x2="61.117" y1="161.206" y2="19.248" gradientUnits="userSpaceOnUse"><stop stop-color="#C4DCFF"/><stop offset="1" stop-color="#F5F7FA"/></linearGradient><linearGradient id="e" x1="-46.531" x2="39.043" y1="81.461" y2="210.632" gradientUnits="userSpaceOnUse"><stop stop-color="#F7F8FA"/><stop offset="1" stop-color="#fff"/></linearGradient><linearGradient id="g" x1="-46.531" x2="-44.923" y1="40.324" y2="61.498" gradientUnits="userSpaceOnUse"><stop stop-color="#F7F8FA"/><stop offset="1" stop-color="#fff"/></linearGradient><linearGradient id="i" x1="64.326" x2="147.037" y1="94.72" y2="167.095" gradientUnits="userSpaceOnUse"><stop stop-color="#F7F8FA"/><stop offset="1" stop-color="#fff"/></linearGradient><filter id="b" width="150" height="152.412" x="20" y="15" color-interpolation-filters="sRGB" filterUnits="userSpaceOnUse"><feFlood flood-opacity="0" result="BackgroundImageFix"/><feColorMatrix in="SourceAlpha" result="hardAlpha" values="0 0 0 0 0 0 0 0 0 0 0 0 0 0 0 0 0 0 127 0"/><feOffset dy="8"/><feGaussianBlur stdDeviation="5"/><feComposite in2="hardAlpha" operator="out"/><feColorMatrix values="0 0 0 0 0.570833 0 0 0 0 0.749653 0 0 0 0 1 0 0 0 0.12 0"/><feBlend in2="BackgroundImageFix" result="effect1_dropShadow_76_32712"/><feColorMatrix in="SourceAlpha" result="hardAlpha" values="0 0 0 0 0 0 0 0 0 0 0 0 0 0 0 0 0 0 127 0"/><feOffset dy="1"/><feGaussianBlur stdDeviation="3"/><feComposite in2="hardAlpha" operator="out"/><feColorMatrix values="0 0 0 0 1 0 0 0 0 1 0 0 0 0 1 0 0 0 0.25 0"/><feBlend in2="effect1_dropShadow_76_32712" result="effect2_dropShadow_76_32712"/><feBlend in="SourceGraphic" in2="effect2_dropShadow_76_32712" result="shape"/></filter><filter id="d" width="156" height="108" x="17" y="32" color-interpolation-filters="sRGB" filterUnits="userSpaceOnUse"><feFlood flood-opacity="0" result="BackgroundImageFix"/><feColorMatrix in="SourceAlpha" result="hardAlpha" values="0 0 0 0 0 0 0 0 0 0 0 0 0 0 0 0 0 0 127 0"/><feOffset dy="2"/><feGaussianBlur stdDeviation="2.5"/><feComposite in2="hardAlpha" operator="out"/><feColorMatrix values="0 0 0 0 0.504167 0 0 0 0 0.711918 0 0 0 0 1 0 0 0 0.1 0"/><feBlend in2="BackgroundImageFix" result="effect1_dropShadow_76_32712"/><feBlend in="SourceGraphic" in2="effect1_dropShadow_76_32712" result="shape"/></filter><filter id="f" width="154.172" height="19.401" x="17.914" y="32.957" color-interpolation-filters="sRGB" filterUnits="userSpaceOnUse"><feFlood flood-opacity="0" result="BackgroundImageFix"/><feColorMatrix in="SourceAlpha" result="hardAlpha" values="0 0 0 0 0 0 0 0 0 0 0 0 0 0 0 0 0 0 127 0"/><feOffset dy="2.043"/><feGaussianBlur stdDeviation="2.043"/><feColorMatrix values="0 0 0 0 0.819608 0 0 0 0 0.85098 0 0 0 0 0.901961 0 0 0 0.3 0"/><feBlend in2="BackgroundImageFix" result="effect1_dropShadow_76_32712"/><feBlend in="SourceGraphic" in2="effect1_dropShadow_76_32712" result="shape"/></filter><filter id="h" width="87" height="99" x="94.5" y="49.5" color-interpolation-filters="sRGB" filterUnits="userSpaceOnUse"><feFlood flood-opacity="0" result="BackgroundImageFix"/><feColorMatrix in="SourceAlpha" result="hardAlpha" values="0 0 0 0 0 0 0 0 0 0 0 0 0 0 0 0 0 0 127 0"/><feOffset dy="2"/><feGaussianBlur stdDeviation="2.5"/><feComposite in2="hardAlpha" operator="out"/><feColorMatrix values="0 0 0 0 0.504167 0 0 0 0 0.711918 0 0 0 0 1 0 0 0 0.2 0"/><feBlend in2="BackgroundImageFix" result="effect1_dropShadow_76_32712"/><feBlend in="SourceGraphic" in2="effect1_dropShadow_76_32712" result="shape"/></filter></defs></svg>