<svg xmlns="http://www.w3.org/2000/svg" fill="none" class="design-iconfont" viewBox="0 0 20 20"><g clip-path="url(#a)"><g filter="url(#b)"><rect width="16" height="14" x="2.642" y="3" fill="#D9D9D9" rx="1"/><rect width="16" height="14" x="2.642" y="3" fill="url(#c)" rx="1"/><rect width="16" height="14" x="2.642" y="3" fill="url(#d)" rx="1"/><rect width="16" height="14" x="2.642" y="3" fill="url(#e)" rx="1"/></g><rect width="14" height="12" x="3.642" y="4" fill="#fff" opacity=".3" rx="1"/><path fill="#fff" d="M10.706 12.095h4.795v1.598h-4.795zM8.043 9.698l-2.26-2.26 1.13-1.131 3.39 3.39-3.39 3.392-1.13-1.132z"/></g><defs><linearGradient id="c" x1="10.642" x2="10.642" y1="3" y2="17" gradientUnits="userSpaceOnUse"><stop stop-color="#54CCFF"/><stop offset="1" stop-color="#1B69FF"/></linearGradient><linearGradient id="d" x1="20.379" x2="13.408" y1="7.015" y2="18.657" gradientUnits="userSpaceOnUse"><stop stop-color="#AAFFB8" stop-opacity=".68"/><stop offset=".397" stop-color="#48FF65" stop-opacity="0"/></linearGradient><linearGradient id="e" x1="17.468" x2="5.174" y1="7.268" y2="18.22" gradientUnits="userSpaceOnUse"><stop offset=".51" stop-color="#A244FF" stop-opacity="0"/><stop offset=".978" stop-color="#A244FF"/></linearGradient><clipPath id="a"><path fill="#fff" d="M0 0h20v20H0z"/></clipPath><filter id="b" width="20" height="18" x=".642" y="2" color-interpolation-filters="sRGB" filterUnits="userSpaceOnUse"><feFlood flood-opacity="0" result="BackgroundImageFix"/><feColorMatrix in="SourceAlpha" result="hardAlpha" values="0 0 0 0 0 0 0 0 0 0 0 0 0 0 0 0 0 0 127 0"/><feOffset dy="1"/><feGaussianBlur stdDeviation="1"/><feComposite in2="hardAlpha" operator="out"/><feColorMatrix values="0 0 0 0 0.215686 0 0 0 0 0.6 0 0 0 0 1 0 0 0 0.4 0"/><feBlend in2="BackgroundImageFix" result="effect1_dropShadow_62_2506"/><feBlend in="SourceGraphic" in2="effect1_dropShadow_62_2506" result="shape"/></filter></defs></svg>