<svg xmlns="http://www.w3.org/2000/svg" width="23" height="26" fill="none"><path fill="url(#a)" d="M9.258 1.155a4 4 0 0 1 4 0l7.259 4.19a4 4 0 0 1 2 3.464v8.382a4 4 0 0 1-2 3.464l-7.259 4.19a4 4 0 0 1-4 0L2 20.655a4 4 0 0 1-2-3.464V8.809a4 4 0 0 1 2-3.464z"/><path fill="url(#b)" d="M9.258 1.155a4 4 0 0 1 4 0l7.259 4.19a4 4 0 0 1 2 3.464v8.382a4 4 0 0 1-2 3.464l-7.259 4.19a4 4 0 0 1-4 0L2 20.655a4 4 0 0 1-2-3.464V8.809a4 4 0 0 1 2-3.464z"/><path fill="url(#c)" d="M9.258 1.155a4 4 0 0 1 4 0l7.259 4.19a4 4 0 0 1 2 3.464v8.382a4 4 0 0 1-2 3.464l-7.259 4.19a4 4 0 0 1-4 0L2 20.655a4 4 0 0 1-2-3.464V8.809a4 4 0 0 1 2-3.464z"/><path fill="#fff" fill-rule="evenodd" d="M15.736 9.157h.144c.217 0 .361.145.433.362v3.105a3 3 0 0 0-1.155-.216 3.39 3.39 0 0 0-3.395 3.394c0 .867.289 1.661.867 2.24-.795.432-1.445.721-1.806.721-1.372 0-5.489-2.528-5.489-5.489V9.52c0-.145.144-.362.361-.362h.072c.361.073.795.145 1.156.145 1.444 0 2.745-.722 3.539-1.95 0 0 0-.072.072-.072.217-.073.434-.073.506.144a4.29 4.29 0 0 0 3.539 1.878c.361 0 .794 0 1.156-.145m-5.2 5.634 2.888-2.961a.567.567 0 0 0 0-.795c-.216-.216-.577-.216-.722 0l-2.528 2.6-1.228-1.227a.567.567 0 0 0-.794 0 .567.567 0 0 0 0 .794l1.589 1.589a.567.567 0 0 0 .794 0m6.716.289c.217.289.506.505.867.433a3.5 3.5 0 0 1 0 1.228q-.541-.108-.867.433a.76.76 0 0 0 0 .94c-.288.288-.65.433-1.01.577a.89.89 0 0 0-.795-.505.89.89 0 0 0-.795.505c-.36-.144-.722-.289-1.01-.578.144-.216.216-.65 0-.939-.218-.288-.506-.505-.868-.433-.072-.217-.072-.433-.072-.65s0-.361.072-.578c.29.072.65-.072.867-.433.145-.361.145-.722-.072-1.011a4.6 4.6 0 0 1 1.011-.578.94.94 0 0 0 .867.578c.433 0 .722-.29.866-.578.362.072.723.289 1.012.578-.217.289-.29.65-.073 1.01m-3.033.939c0 .722.578 1.228 1.228 1.228s1.155-.578 1.155-1.228a1.14 1.14 0 0 0-1.155-1.156c-.65 0-1.228.506-1.228 1.156" clip-rule="evenodd"/><defs><linearGradient id="a" x1="11.258" x2="11.258" y1="0" y2="26" gradientUnits="userSpaceOnUse"><stop stop-color="#B3B7BF"/><stop offset="1" stop-color="#969AA1"/></linearGradient><linearGradient id="b" x1="11.258" x2="11.258" y1="0" y2="26" gradientUnits="userSpaceOnUse"><stop stop-color="#55F996"/><stop offset="1" stop-color="#01D689"/></linearGradient><linearGradient id="c" x1="11.258" x2="11.258" y1="0" y2="26" gradientUnits="userSpaceOnUse"><stop stop-color="#1BBBFF"/><stop offset="1" stop-color="#1B7CFF"/></linearGradient></defs></svg>