<svg xmlns="http://www.w3.org/2000/svg" fill="none" class="design-iconfont" viewBox="0 0 24 26"><path fill="url(#a)" d="M9.758 1.155a4 4 0 0 1 4 0l7.259 4.19a4 4 0 0 1 2 3.464v8.382a4 4 0 0 1-2 3.464l-7.259 4.19a4 4 0 0 1-4 0L2.5 20.655a4 4 0 0 1-2-3.464V8.809a4 4 0 0 1 2-3.464z"/><path fill="url(#b)" d="M9.758 1.155a4 4 0 0 1 4 0l7.259 4.19a4 4 0 0 1 2 3.464v8.382a4 4 0 0 1-2 3.464l-7.259 4.19a4 4 0 0 1-4 0L2.5 20.655a4 4 0 0 1-2-3.464V8.809a4 4 0 0 1 2-3.464z"/><path fill="#fff" fill-rule="evenodd" d="M7.505 7.169h8.37c.96 0 1.783.686 1.783 1.646v6.312c0 .96-.823 1.646-1.646 1.646h-2.333v.96h.412c.412 0 .686.275.686.55 0 .274-.274.548-.686.548h-4.39c-.412 0-.687-.274-.687-.549 0-.274.275-.548.686-.548h.412v-.96H7.505c-.823 0-1.647-.687-1.647-1.647V8.815c0-.96.824-1.646 1.647-1.646m6.86 5.488a.295.295 0 0 0 .275-.274v-.96a.295.295 0 0 0-.275-.275h-.137c-.412-.138-.686-.55-.549-1.098v-.412s-.137-.137-.411-.274a.5.5 0 0 1-.206-.069c-.069-.034-.137-.068-.206-.068-.137-.137-.274 0-.274 0v.137a4 4 0 0 0-.197.108c-.161.093-.288.166-.49.166-.274 0-.548-.137-.685-.274v-.137c-.138-.137-.275-.137-.412-.137 0 0-.137 0-.412.137s-.411.274-.411.274c-.138.137-.138.275-.138.412v.137c.138.549-.137.96-.686 1.235h-.137c-.085 0-.117.052-.162.125a.8.8 0 0 1-.112.15v.822a.8.8 0 0 1 .112.15c.045.072.077.125.162.125h.137c.55.137.824.686.686 1.098v.137c-.091.091-.06.183-.03.274.015.046.03.092.03.137 0 0 .138 0 .412.275.274.137.412.137.412.137.137 0 .274 0 .411-.274.412-.412.96-.412 1.372 0v.137c.138.137.275.137.412.137 0 0 .137-.137.274-.137.275-.137.412-.274.412-.274.137-.138.137-.275.137-.412v-.137c-.137-.412.137-.96.686-1.098m-3.841-.686a1.23 1.23 0 0 1 1.234-1.235c.686 0 1.098.549 1.235 1.235a1.23 1.23 0 0 1-1.235 1.235 1.23 1.23 0 0 1-1.234-1.235" clip-rule="evenodd"/><defs><linearGradient id="a" x1="11.758" x2="11.758" y1="0" y2="26" gradientUnits="userSpaceOnUse"><stop stop-color="#B3B7BF"/><stop offset="1" stop-color="#969AA1"/></linearGradient><linearGradient id="b" x1="11.758" x2="11.758" y1="0" y2="26" gradientUnits="userSpaceOnUse"><stop stop-color="#1BBBFF"/><stop offset="1" stop-color="#1B7CFF"/></linearGradient></defs></svg>