<svg xmlns="http://www.w3.org/2000/svg" fill="none" class="design-iconfont" viewBox="0 0 26 26"><g filter="url(#a)"><path fill="url(#b)" d="M4 4.5a1 1 0 0 1 1-1h16a1 1 0 0 1 1 1v15a1 1 0 0 1-1 1H5a1 1 0 0 1-1-1z" shape-rendering="crispEdges"/></g><path fill="url(#c)" d="M5 5.5a1 1 0 0 1 1-1h14a1 1 0 0 1 1 1v13a1 1 0 0 1-1 1H6a1 1 0 0 1-1-1z"/><g filter="url(#d)" shape-rendering="crispEdges"><path fill="#fff" fill-opacity=".2" d="M15.84 7.005a1 1 0 0 1 1 1v6.922a1 1 0 0 1-1.462.887l-1.916-.998a1 1 0 0 0-.924 0l-1.916.998a1 1 0 0 1-1.462-.887V8.005a1 1 0 0 1 1-1z"/><path stroke="#fff" d="M17.34 14.927V8.005a1.5 1.5 0 0 0-1.5-1.5h-5.68a1.5 1.5 0 0 0-1.5 1.5v6.922a1.5 1.5 0 0 0 2.193 1.33l1.916-.998a.5.5 0 0 1 .462 0l1.916.998a1.5 1.5 0 0 0 2.193-1.33Z"/></g><defs><linearGradient id="b" x1="13" x2="13" y1="3.5" y2="20.5" gradientUnits="userSpaceOnUse"><stop stop-color="#fff"/><stop offset="1" stop-color="#fff" stop-opacity=".38"/></linearGradient><linearGradient id="c" x1="13" x2="13" y1="4.5" y2="19.5" gradientUnits="userSpaceOnUse"><stop stop-color="#89AAFC"/><stop offset="1" stop-color="#DFEAFF"/></linearGradient><filter id="a" width="26" height="25" x="0" y=".5" color-interpolation-filters="sRGB" filterUnits="userSpaceOnUse"><feFlood flood-opacity="0" result="BackgroundImageFix"/><feColorMatrix in="SourceAlpha" result="hardAlpha" values="0 0 0 0 0 0 0 0 0 0 0 0 0 0 0 0 0 0 127 0"/><feOffset dy="1"/><feGaussianBlur stdDeviation="2"/><feComposite in2="hardAlpha" operator="out"/><feColorMatrix values="0 0 0 0 0.0885876 0 0 0 0 0.240744 0 0 0 0 0.626988 0 0 0 0.2 0"/><feBlend in2="BackgroundImageFix" result="effect1_dropShadow_454_19072"/><feBlend in="SourceGraphic" in2="effect1_dropShadow_454_19072" result="shape"/></filter><filter id="d" width="13.68" height="14.925" x="6.16" y="5.005" color-interpolation-filters="sRGB" filterUnits="userSpaceOnUse"><feFlood flood-opacity="0" result="BackgroundImageFix"/><feColorMatrix in="SourceAlpha" result="hardAlpha" values="0 0 0 0 0 0 0 0 0 0 0 0 0 0 0 0 0 0 127 0"/><feOffset dy="1"/><feGaussianBlur stdDeviation="1"/><feComposite in2="hardAlpha" operator="out"/><feColorMatrix values="0 0 0 0 0.0885876 0 0 0 0 0.240744 0 0 0 0 0.626988 0 0 0 0.4 0"/><feBlend in2="BackgroundImageFix" result="effect1_dropShadow_454_19072"/><feBlend in="SourceGraphic" in2="effect1_dropShadow_454_19072" result="shape"/></filter></defs></svg>