<svg xmlns="http://www.w3.org/2000/svg" fill="none" class="design-iconfont" viewBox="0 0 26 26"><g filter="url(#a)"><path fill="url(#b)" d="M4 4.5a1 1 0 0 1 1-1h16a1 1 0 0 1 1 1v15a1 1 0 0 1-1 1H5a1 1 0 0 1-1-1z" shape-rendering="crispEdges"/></g><path fill="url(#c)" d="M5 5.5a1 1 0 0 1 1-1h14a1 1 0 0 1 1 1v13a1 1 0 0 1-1 1H6a1 1 0 0 1-1-1z"/><g filter="url(#d)" shape-rendering="crispEdges"><path fill="#fff" fill-opacity=".2" d="M17.322 7.005a1 1 0 0 1 1 1v7.57a1 1 0 0 1-1 1H8.678a1 1 0 0 1-1-1v-7.57a1 1 0 0 1 1-1z"/><path stroke="#fff" d="M18.822 15.575v-7.57a1.5 1.5 0 0 0-1.5-1.5H8.678a1.5 1.5 0 0 0-1.5 1.5v7.57a1.5 1.5 0 0 0 1.5 1.5h8.644a1.5 1.5 0 0 0 1.5-1.5Z"/></g><path fill="#fff" d="M12.998 8.74c.896 0 1.669.316 2.31.949.633.633.949 1.406.949 2.31 0 .897-.316 1.67-.949 2.311a3.18 3.18 0 0 1-2.31.949c-.905 0-1.678-.316-2.31-.949a3.18 3.18 0 0 1-.95-2.31c0-.905.317-1.678.95-2.311.632-.633 1.405-.949 2.31-.949m0 .536q-1.134-.002-1.924.8a2.6 2.6 0 0 0-.8 1.923c0 .747.264 1.389.8 1.925a2.63 2.63 0 0 0 1.924.799c.746 0 1.388-.272 1.924-.8.527-.535.799-1.177.799-1.924 0-.755-.272-1.396-.8-1.923a2.62 2.62 0 0 0-1.923-.8m.07.703c.492 0 .887.105 1.186.325q.472.34.588 1.063h-.834a.87.87 0 0 0-.343-.492q-.237-.158-.606-.158c-.386 0-.676.114-.852.351-.167.211-.246.527-.246.94s.088.73.272.94q.264.332.844.334c.254 0 .465-.07.632-.193.158-.132.281-.325.352-.58h.834c-.105.527-.316.914-.65 1.168-.299.229-.694.343-1.168.343-.677 0-1.186-.21-1.529-.615-.299-.351-.44-.817-.44-1.397s.15-1.045.449-1.405c.351-.422.852-.624 1.51-.624"/><defs><linearGradient id="b" x1="13" x2="13" y1="3.5" y2="20.5" gradientUnits="userSpaceOnUse"><stop stop-color="#fff"/><stop offset="1" stop-color="#fff" stop-opacity=".38"/></linearGradient><linearGradient id="c" x1="13" x2="13" y1="4.5" y2="19.5" gradientUnits="userSpaceOnUse"><stop stop-color="#89AAFC"/><stop offset="1" stop-color="#DFEAFF"/></linearGradient><filter id="a" width="26" height="25" x="0" y=".5" color-interpolation-filters="sRGB" filterUnits="userSpaceOnUse"><feFlood flood-opacity="0" result="BackgroundImageFix"/><feColorMatrix in="SourceAlpha" result="hardAlpha" values="0 0 0 0 0 0 0 0 0 0 0 0 0 0 0 0 0 0 127 0"/><feOffset dy="1"/><feGaussianBlur stdDeviation="2"/><feComposite in2="hardAlpha" operator="out"/><feColorMatrix values="0 0 0 0 0.0885876 0 0 0 0 0.240744 0 0 0 0 0.626988 0 0 0 0.2 0"/><feBlend in2="BackgroundImageFix" result="effect1_dropShadow_517_25590"/><feBlend in="SourceGraphic" in2="effect1_dropShadow_517_25590" result="shape"/></filter><filter id="d" width="16.645" height="15.57" x="4.678" y="5.005" color-interpolation-filters="sRGB" filterUnits="userSpaceOnUse"><feFlood flood-opacity="0" result="BackgroundImageFix"/><feColorMatrix in="SourceAlpha" result="hardAlpha" values="0 0 0 0 0 0 0 0 0 0 0 0 0 0 0 0 0 0 127 0"/><feOffset dy="1"/><feGaussianBlur stdDeviation="1"/><feComposite in2="hardAlpha" operator="out"/><feColorMatrix values="0 0 0 0 0.0885876 0 0 0 0 0.240744 0 0 0 0 0.626988 0 0 0 0.4 0"/><feBlend in2="BackgroundImageFix" result="effect1_dropShadow_517_25590"/><feBlend in="SourceGraphic" in2="effect1_dropShadow_517_25590" result="shape"/></filter></defs></svg>