<svg xmlns="http://www.w3.org/2000/svg" fill="none" class="design-iconfont" viewBox="0 0 26 26"><g filter="url(#a)"><path fill="url(#b)" d="M4 4.5a1 1 0 0 1 1-1h16a1 1 0 0 1 1 1v15a1 1 0 0 1-1 1H5a1 1 0 0 1-1-1z" shape-rendering="crispEdges"/></g><path fill="url(#c)" d="M5 5.5a1 1 0 0 1 1-1h14a1 1 0 0 1 1 1v13a1 1 0 0 1-1 1H6a1 1 0 0 1-1-1z"/><g filter="url(#d)" shape-rendering="crispEdges"><path fill="#fff" fill-opacity=".2" d="M17.322 7.005a1 1 0 0 1 1 1v7.57a1 1 0 0 1-1 1H8.678a1 1 0 0 1-1-1v-7.57a1 1 0 0 1 1-1z"/><path stroke="#fff" d="M18.822 15.575v-7.57a1.5 1.5 0 0 0-1.5-1.5H8.678a1.5 1.5 0 0 0-1.5 1.5v7.57a1.5 1.5 0 0 0 1.5 1.5h8.644a1.5 1.5 0 0 0 1.5-1.5Z"/></g><g filter="url(#e)" shape-rendering="crispEdges"><rect width="1" height="10.645" x="7.678" y="10.838" fill="#fff" fill-opacity=".2" rx=".5" transform="rotate(-90 7.678 10.838)"/><rect width=".5" height="10.145" x="7.928" y="10.588" stroke="#fff" stroke-width=".5" rx=".25" transform="rotate(-90 7.928 10.588)"/></g><g filter="url(#f)" shape-rendering="crispEdges"><rect width="1" height="5.737" x="10.607" y="10.838" fill="#fff" fill-opacity=".2" rx=".5"/><rect width=".5" height="5.237" x="10.857" y="11.088" stroke="#fff" stroke-width=".5" rx=".25"/></g><defs><filter id="a" width="26" height="25" x="0" y=".5" color-interpolation-filters="sRGB" filterUnits="userSpaceOnUse"><feFlood flood-opacity="0" result="BackgroundImageFix"/><feColorMatrix in="SourceAlpha" result="hardAlpha" values="0 0 0 0 0 0 0 0 0 0 0 0 0 0 0 0 0 0 127 0"/><feOffset dy="1"/><feGaussianBlur stdDeviation="2"/><feComposite in2="hardAlpha" operator="out"/><feColorMatrix values="0 0 0 0 0.0885876 0 0 0 0 0.240744 0 0 0 0 0.626988 0 0 0 0.2 0"/><feBlend in2="BackgroundImageFix" result="effect1_dropShadow_517_23303"/><feBlend in="SourceGraphic" in2="effect1_dropShadow_517_23303" result="shape"/></filter><filter id="d" width="16.645" height="15.57" x="4.678" y="5.005" color-interpolation-filters="sRGB" filterUnits="userSpaceOnUse"><feFlood flood-opacity="0" result="BackgroundImageFix"/><feColorMatrix in="SourceAlpha" result="hardAlpha" values="0 0 0 0 0 0 0 0 0 0 0 0 0 0 0 0 0 0 127 0"/><feOffset dy="1"/><feGaussianBlur stdDeviation="1"/><feComposite in2="hardAlpha" operator="out"/><feColorMatrix values="0 0 0 0 0.0885876 0 0 0 0 0.240744 0 0 0 0 0.626988 0 0 0 0.4 0"/><feBlend in2="BackgroundImageFix" result="effect1_dropShadow_517_23303"/><feBlend in="SourceGraphic" in2="effect1_dropShadow_517_23303" result="shape"/></filter><filter id="e" width="14.645" height="5" x="5.678" y="8.838" color-interpolation-filters="sRGB" filterUnits="userSpaceOnUse"><feFlood flood-opacity="0" result="BackgroundImageFix"/><feColorMatrix in="SourceAlpha" result="hardAlpha" values="0 0 0 0 0 0 0 0 0 0 0 0 0 0 0 0 0 0 127 0"/><feOffset dy="1"/><feGaussianBlur stdDeviation="1"/><feComposite in2="hardAlpha" operator="out"/><feColorMatrix values="0 0 0 0 0.0885876 0 0 0 0 0.240744 0 0 0 0 0.626988 0 0 0 0.4 0"/><feBlend in2="BackgroundImageFix" result="effect1_dropShadow_517_23303"/><feBlend in="SourceGraphic" in2="effect1_dropShadow_517_23303" result="shape"/></filter><filter id="f" width="5" height="9.737" x="8.607" y="9.838" color-interpolation-filters="sRGB" filterUnits="userSpaceOnUse"><feFlood flood-opacity="0" result="BackgroundImageFix"/><feColorMatrix in="SourceAlpha" result="hardAlpha" values="0 0 0 0 0 0 0 0 0 0 0 0 0 0 0 0 0 0 127 0"/><feOffset dy="1"/><feGaussianBlur stdDeviation="1"/><feComposite in2="hardAlpha" operator="out"/><feColorMatrix values="0 0 0 0 0.0885876 0 0 0 0 0.240744 0 0 0 0 0.626988 0 0 0 0.4 0"/><feBlend in2="BackgroundImageFix" result="effect1_dropShadow_517_23303"/><feBlend in="SourceGraphic" in2="effect1_dropShadow_517_23303" result="shape"/></filter><linearGradient id="b" x1="13" x2="13" y1="3.5" y2="20.5" gradientUnits="userSpaceOnUse"><stop stop-color="#fff"/><stop offset="1" stop-color="#fff" stop-opacity=".38"/></linearGradient><linearGradient id="c" x1="13" x2="13" y1="4.5" y2="19.5" gradientUnits="userSpaceOnUse"><stop stop-color="#89AAFC"/><stop offset="1" stop-color="#DFEAFF"/></linearGradient></defs></svg>