<svg xmlns="http://www.w3.org/2000/svg" fill="none" class="design-iconfont" viewBox="0 0 20 21"><g clip-path="url(#a)"><g filter="url(#b)"><path fill="url(#c)" d="M16.5 4.873h-6l-1.75-1.75H3.5a1.75 1.75 0 0 0-1.75 1.75v10.5a1.75 1.75 0 0 0 1.75 1.75h13a1.75 1.75 0 0 0 1.75-1.75v-8.75a1.75 1.75 0 0 0-1.75-1.75"/><path fill="url(#d)" d="M16.5 4.873h-6l-1.75-1.75H3.5a1.75 1.75 0 0 0-1.75 1.75v10.5a1.75 1.75 0 0 0 1.75 1.75h13a1.75 1.75 0 0 0 1.75-1.75v-8.75a1.75 1.75 0 0 0-1.75-1.75"/><path fill="url(#e)" d="M16.5 4.873h-6l-1.75-1.75H3.5a1.75 1.75 0 0 0-1.75 1.75v10.5a1.75 1.75 0 0 0 1.75 1.75h13a1.75 1.75 0 0 0 1.75-1.75v-8.75a1.75 1.75 0 0 0-1.75-1.75"/></g><path fill="#fff" d="M3.063 7.386a1 1 0 0 1 1-1h11.874a1 1 0 0 1 1 1v7.283a1 1 0 0 1-1 1H4.063a1 1 0 0 1-1-1z" opacity=".3"/><path fill="#fff" d="M7.695 7.735a1.646 1.646 0 1 1 0 3.293 1.646 1.646 0 0 1 0-3.293m2.964 6.586H4.73v-.659a1.976 1.976 0 0 1 1.976-1.976h1.976a1.975 1.975 0 0 1 1.976 1.976zm3.292-2.635h-2.634V10.37h2.634zm1.318-1.975h-3.952V8.393h3.952z"/></g><defs><linearGradient id="c" x1="10.5" x2="10.5" y1="3.123" y2="17.123" gradientUnits="userSpaceOnUse"><stop stop-color="#54CCFF"/><stop offset="1" stop-color="#1B69FF"/></linearGradient><linearGradient id="d" x1="21.15" x2="14.489" y1="7.138" y2="19.306" gradientUnits="userSpaceOnUse"><stop stop-color="#AAFFB8" stop-opacity=".68"/><stop offset=".397" stop-color="#48FF65" stop-opacity="0"/></linearGradient><linearGradient id="e" x1="17.966" x2="5.594" y1="7.391" y2="19.446" gradientUnits="userSpaceOnUse"><stop offset=".51" stop-color="#A244FF" stop-opacity="0"/><stop offset=".978" stop-color="#A244FF"/></linearGradient><clipPath id="a"><path fill="#fff" d="M0 .123h20v20H0z"/></clipPath><filter id="b" width="20.5" height="18" x="-.25" y="2.123" color-interpolation-filters="sRGB" filterUnits="userSpaceOnUse"><feFlood flood-opacity="0" result="BackgroundImageFix"/><feColorMatrix in="SourceAlpha" result="hardAlpha" values="0 0 0 0 0 0 0 0 0 0 0 0 0 0 0 0 0 0 127 0"/><feOffset dy="1"/><feGaussianBlur stdDeviation="1"/><feComposite in2="hardAlpha" operator="out"/><feColorMatrix values="0 0 0 0 0.215686 0 0 0 0 0.6 0 0 0 0 1 0 0 0 0.4 0"/><feBlend in2="BackgroundImageFix" result="effect1_dropShadow_83_6396"/><feBlend in="SourceGraphic" in2="effect1_dropShadow_83_6396" result="shape"/></filter></defs></svg>