<svg xmlns="http://www.w3.org/2000/svg" fill="none" class="design-iconfont" viewBox="0 0 26 26"><g filter="url(#a)"><path fill="url(#b)" d="M4 4.5a1 1 0 0 1 1-1h16a1 1 0 0 1 1 1v15a1 1 0 0 1-1 1H5a1 1 0 0 1-1-1z" shape-rendering="crispEdges"/></g><path fill="url(#c)" d="M5 5.5a1 1 0 0 1 1-1h14a1 1 0 0 1 1 1v13a1 1 0 0 1-1 1H6a1 1 0 0 1-1-1z"/><g filter="url(#d)"><path fill="#fff" fill-opacity=".2" d="m15.132 7.883-2.001 2.002.52 1.148 1.147.52L16.8 9.55a3.146 3.146 0 1 1-1.668-1.668m-3.01 3.105 1.574 1.573-2.325 2.867a1.502 1.502 0 0 1-2.572-.408 1.5 1.5 0 0 1 .456-1.707z"/><path stroke="#fff" stroke-linejoin="round" d="M15.486 8.237a.5.5 0 0 0-.158-.814 3.644 3.644 0 0 0-4.938 4.326l-1.45 1.176a2.004 2.004 0 0 0-.154 2.973 2.004 2.004 0 0 0 2.973-.155l1.177-1.452a3.646 3.646 0 0 0 4.324-4.935.5.5 0 0 0-.814-.158l-1.757 1.756-.66-.299-.3-.661z"/></g><defs><linearGradient id="b" x1="13" x2="13" y1="3.5" y2="20.5" gradientUnits="userSpaceOnUse"><stop stop-color="#fff"/><stop offset="1" stop-color="#fff" stop-opacity=".38"/></linearGradient><linearGradient id="c" x1="13" x2="13" y1="4.5" y2="19.5" gradientUnits="userSpaceOnUse"><stop stop-color="#89AAFC"/><stop offset="1" stop-color="#DFEAFF"/></linearGradient><filter id="a" width="26" height="25" x="0" y=".5" color-interpolation-filters="sRGB" filterUnits="userSpaceOnUse"><feFlood flood-opacity="0" result="BackgroundImageFix"/><feColorMatrix in="SourceAlpha" result="hardAlpha" values="0 0 0 0 0 0 0 0 0 0 0 0 0 0 0 0 0 0 127 0"/><feOffset dy="1"/><feGaussianBlur stdDeviation="2"/><feComposite in2="hardAlpha" operator="out"/><feColorMatrix values="0 0 0 0 0.0885876 0 0 0 0 0.240744 0 0 0 0 0.626988 0 0 0 0.2 0"/><feBlend in2="BackgroundImageFix" result="effect1_dropShadow_517_21117"/><feBlend in="SourceGraphic" in2="effect1_dropShadow_517_21117" result="shape"/></filter><filter id="d" width="14.35" height="14.352" x="5.699" y="5.633" color-interpolation-filters="sRGB" filterUnits="userSpaceOnUse"><feFlood flood-opacity="0" result="BackgroundImageFix"/><feColorMatrix in="SourceAlpha" result="hardAlpha" values="0 0 0 0 0 0 0 0 0 0 0 0 0 0 0 0 0 0 127 0"/><feOffset dy="1"/><feGaussianBlur stdDeviation="1"/><feComposite in2="hardAlpha" operator="out"/><feColorMatrix values="0 0 0 0 0.0885876 0 0 0 0 0.240744 0 0 0 0 0.626988 0 0 0 0.4 0"/><feBlend in2="BackgroundImageFix" result="effect1_dropShadow_517_21117"/><feBlend in="SourceGraphic" in2="effect1_dropShadow_517_21117" result="shape"/></filter></defs></svg>