<svg xmlns="http://www.w3.org/2000/svg" fill="none" class="design-iconfont" viewBox="0 0 26 26"><g filter="url(#a)"><path fill="url(#b)" d="M4 4.5a1 1 0 0 1 1-1h16a1 1 0 0 1 1 1v15a1 1 0 0 1-1 1H5a1 1 0 0 1-1-1z" shape-rendering="crispEdges"/></g><path fill="url(#c)" d="M5 5.5a1 1 0 0 1 1-1h14a1 1 0 0 1 1 1v13a1 1 0 0 1-1 1H6a1 1 0 0 1-1-1z"/><g filter="url(#d)" shape-rendering="crispEdges"><path fill="#fff" fill-opacity=".2" d="M8.1 8.147a1 1 0 0 1 1-1h7.8a1 1 0 0 1 1 1v2H8.1z"/><path stroke="#fff" d="M17.901 10.648h.5v-2.5a1.5 1.5 0 0 0-1.5-1.5H9.1a1.5 1.5 0 0 0-1.5 1.5v2.5h10.3Z"/></g><g filter="url(#e)" shape-rendering="crispEdges"><path fill="#fff" fill-opacity=".2" d="M17.901 15.836a1 1 0 0 1-1 1H9.1a1 1 0 0 1-1-1v-2h9.8z"/><path stroke="#fff" d="M8.1 13.336h-.5v2.5a1.5 1.5 0 0 0 1.5 1.5h7.8a1.5 1.5 0 0 0 1.5-1.5v-2.5z"/></g><defs><filter id="a" width="26" height="25" x="0" y=".5" color-interpolation-filters="sRGB" filterUnits="userSpaceOnUse"><feFlood flood-opacity="0" result="BackgroundImageFix"/><feColorMatrix in="SourceAlpha" result="hardAlpha" values="0 0 0 0 0 0 0 0 0 0 0 0 0 0 0 0 0 0 127 0"/><feOffset dy="1"/><feGaussianBlur stdDeviation="2"/><feComposite in2="hardAlpha" operator="out"/><feColorMatrix values="0 0 0 0 0.0885876 0 0 0 0 0.240744 0 0 0 0 0.626988 0 0 0 0.2 0"/><feBlend in2="BackgroundImageFix" result="effect1_dropShadow_188_20555"/><feBlend in="SourceGraphic" in2="effect1_dropShadow_188_20555" result="shape"/></filter><filter id="d" width="15.802" height="9" x="5.1" y="5.147" color-interpolation-filters="sRGB" filterUnits="userSpaceOnUse"><feFlood flood-opacity="0" result="BackgroundImageFix"/><feColorMatrix in="SourceAlpha" result="hardAlpha" values="0 0 0 0 0 0 0 0 0 0 0 0 0 0 0 0 0 0 127 0"/><feOffset dy="1"/><feGaussianBlur stdDeviation="1"/><feComposite in2="hardAlpha" operator="out"/><feColorMatrix values="0 0 0 0 0.0885876 0 0 0 0 0.240744 0 0 0 0 0.626988 0 0 0 0.4 0"/><feBlend in2="BackgroundImageFix" result="effect1_dropShadow_188_20555"/><feBlend in="SourceGraphic" in2="effect1_dropShadow_188_20555" result="shape"/></filter><filter id="e" width="15.802" height="9" x="5.1" y="11.836" color-interpolation-filters="sRGB" filterUnits="userSpaceOnUse"><feFlood flood-opacity="0" result="BackgroundImageFix"/><feColorMatrix in="SourceAlpha" result="hardAlpha" values="0 0 0 0 0 0 0 0 0 0 0 0 0 0 0 0 0 0 127 0"/><feOffset dy="1"/><feGaussianBlur stdDeviation="1"/><feComposite in2="hardAlpha" operator="out"/><feColorMatrix values="0 0 0 0 0.0885876 0 0 0 0 0.240744 0 0 0 0 0.626988 0 0 0 0.4 0"/><feBlend in2="BackgroundImageFix" result="effect1_dropShadow_188_20555"/><feBlend in="SourceGraphic" in2="effect1_dropShadow_188_20555" result="shape"/></filter><linearGradient id="b" x1="13" x2="13" y1="3.5" y2="20.5" gradientUnits="userSpaceOnUse"><stop stop-color="#fff"/><stop offset="1" stop-color="#fff" stop-opacity=".38"/></linearGradient><linearGradient id="c" x1="13" x2="13" y1="4.5" y2="19.5" gradientUnits="userSpaceOnUse"><stop stop-color="#89AAFC"/><stop offset="1" stop-color="#DFEAFF"/></linearGradient></defs></svg>