<svg width="32" height="32" viewBox="0 0 32 32" fill="none" xmlns="http://www.w3.org/2000/svg">
<path fill-rule="evenodd" clip-rule="evenodd" d="M4.15674 7.65674C4.15674 5.72374 5.72374 4.15674 7.65674 4.15674H24.3435C26.2765 4.15674 27.8435 5.72374 27.8435 7.65674V12.5086C27.8435 13.3371 27.1719 14.0086 26.3435 14.0086C25.5151 14.0086 24.8435 13.3371 24.8435 12.5086V7.65674C24.8435 7.3806 24.6196 7.15674 24.3435 7.15674H7.65674C7.3806 7.15674 7.15674 7.3806 7.15674 7.65674V24.3435C7.15674 24.6196 7.3806 24.8435 7.65674 24.8435H11.3681C12.1965 24.8435 12.8681 25.5151 12.8681 26.3435C12.8681 27.1719 12.1965 27.8435 11.3681 27.8435H7.65674C5.72374 27.8435 4.15674 26.2765 4.15674 24.3435V7.65674Z" fill="white"/>
<path fill-rule="evenodd" clip-rule="evenodd" d="M16.4321 18.9331C16.4321 17.5524 17.5514 16.4331 18.9321 16.4331H25.3427C26.7234 16.4331 27.8427 17.5524 27.8427 18.9331V25.3437C27.8427 26.7244 26.7234 27.8437 25.3427 27.8437H18.9321C17.5514 27.8437 16.4321 26.7244 16.4321 25.3437V18.9331ZM19.4321 19.4331V24.8437H24.8427V19.4331H19.4321Z" fill="white"/>
<path fill-rule="evenodd" clip-rule="evenodd" d="M10.0298 8.41602C9.20136 8.41602 8.52979 9.08759 8.52979 9.91602L8.52978 14.9434C8.52978 15.7718 9.20136 16.4434 10.0298 16.4434C10.8582 16.4434 11.5298 15.7718 11.5298 14.9434L11.5298 11.416L15.0572 11.416C15.8856 11.416 16.5572 10.7444 16.5572 9.91602C16.5572 9.08759 15.8856 8.41602 15.0572 8.41602L10.0298 8.41602Z" fill="white"/>
<path fill-rule="evenodd" clip-rule="evenodd" d="M16.1188 16.004C16.7046 15.4183 16.7046 14.4685 16.1188 13.8827L12.5639 10.3278C11.9781 9.74203 11.0283 9.74203 10.4425 10.3278C9.85676 10.9136 9.85675 11.8633 10.4425 12.4491L13.9974 16.004C14.5832 16.5898 15.533 16.5898 16.1188 16.004Z" fill="white"/>
</svg>
