<svg xmlns="http://www.w3.org/2000/svg" fill="none" class="design-iconfont" viewBox="0 0 26 26"><g filter="url(#a)"><path fill="url(#b)" d="M4 4.5a1 1 0 0 1 1-1h16a1 1 0 0 1 1 1v15a1 1 0 0 1-1 1H5a1 1 0 0 1-1-1z" shape-rendering="crispEdges"/></g><path fill="url(#c)" d="M5 5.5a1 1 0 0 1 1-1h14a1 1 0 0 1 1 1v13a1 1 0 0 1-1 1H6a1 1 0 0 1-1-1z"/><g filter="url(#d)" shape-rendering="crispEdges"><path fill="#fff" fill-opacity=".2" d="M17.322 7.005a1 1 0 0 1 1 1v7.57a1 1 0 0 1-1 1H8.678a1 1 0 0 1-1-1v-7.57a1 1 0 0 1 1-1z"/><path stroke="#fff" d="M18.822 15.575v-7.57a1.5 1.5 0 0 0-1.5-1.5H8.678a1.5 1.5 0 0 0-1.5 1.5v7.57a1.5 1.5 0 0 0 1.5 1.5h8.644a1.5 1.5 0 0 0 1.5-1.5Z"/></g><g filter="url(#e)" shape-rendering="crispEdges"><path fill="#fff" fill-opacity=".2" d="M13.086 9.06a.5.5 0 0 1 0 .707l-2.293 2.293a.5.5 0 0 1-.707-.707l2.293-2.293a.5.5 0 0 1 .707 0"/><path stroke="#fff" d="M13.086 9.06a.5.5 0 0 1 0 .707l-2.293 2.293a.5.5 0 0 1-.707-.707l2.293-2.293a.5.5 0 0 1 .707 0Z"/></g><g filter="url(#f)" shape-rendering="crispEdges"><path fill="#fff" fill-opacity=".2" d="M15.916 10.475a.5.5 0 0 1 0 .707l-.932.931a.5.5 0 0 1-.707-.707l.932-.931a.5.5 0 0 1 .707 0"/><path stroke="#fff" d="M15.916 10.475a.5.5 0 0 1 0 .707l-.932.931a.5.5 0 0 1-.707-.707l.932-.931a.5.5 0 0 1 .707 0Z"/></g><g filter="url(#g)" shape-rendering="crispEdges"><path fill="#fff" fill-opacity=".2" d="M13.086 13.303a.5.5 0 0 1 0 .707l-.932.931a.5.5 0 1 1-.707-.707l.932-.931a.5.5 0 0 1 .707 0"/><path stroke="#fff" d="M13.086 13.303a.5.5 0 0 1 0 .707l-.932.931a.5.5 0 1 1-.707-.707l.932-.931a.5.5 0 0 1 .707 0Z"/></g><defs><filter id="a" width="26" height="25" x="0" y=".5" color-interpolation-filters="sRGB" filterUnits="userSpaceOnUse"><feFlood flood-opacity="0" result="BackgroundImageFix"/><feColorMatrix in="SourceAlpha" result="hardAlpha" values="0 0 0 0 0 0 0 0 0 0 0 0 0 0 0 0 0 0 127 0"/><feOffset dy="1"/><feGaussianBlur stdDeviation="2"/><feComposite in2="hardAlpha" operator="out"/><feColorMatrix values="0 0 0 0 0.0885876 0 0 0 0 0.240744 0 0 0 0 0.626988 0 0 0 0.2 0"/><feBlend in2="BackgroundImageFix" result="effect1_dropShadow_517_26895"/><feBlend in="SourceGraphic" in2="effect1_dropShadow_517_26895" result="shape"/></filter><filter id="d" width="16.645" height="15.57" x="4.678" y="5.005" color-interpolation-filters="sRGB" filterUnits="userSpaceOnUse"><feFlood flood-opacity="0" result="BackgroundImageFix"/><feColorMatrix in="SourceAlpha" result="hardAlpha" values="0 0 0 0 0 0 0 0 0 0 0 0 0 0 0 0 0 0 127 0"/><feOffset dy="1"/><feGaussianBlur stdDeviation="1"/><feComposite in2="hardAlpha" operator="out"/><feColorMatrix values="0 0 0 0 0.0885876 0 0 0 0 0.240744 0 0 0 0 0.626988 0 0 0 0.4 0"/><feBlend in2="BackgroundImageFix" result="effect1_dropShadow_517_26895"/><feBlend in="SourceGraphic" in2="effect1_dropShadow_517_26895" result="shape"/></filter><filter id="e" width="8.293" height="8.293" x="7.439" y="7.413" color-interpolation-filters="sRGB" filterUnits="userSpaceOnUse"><feFlood flood-opacity="0" result="BackgroundImageFix"/><feColorMatrix in="SourceAlpha" result="hardAlpha" values="0 0 0 0 0 0 0 0 0 0 0 0 0 0 0 0 0 0 127 0"/><feOffset dy="1"/><feGaussianBlur stdDeviation="1"/><feComposite in2="hardAlpha" operator="out"/><feColorMatrix values="0 0 0 0 0.0885876 0 0 0 0 0.240744 0 0 0 0 0.626988 0 0 0 0.4 0"/><feBlend in2="BackgroundImageFix" result="effect1_dropShadow_517_26895"/><feBlend in="SourceGraphic" in2="effect1_dropShadow_517_26895" result="shape"/></filter><filter id="f" width="6.932" height="6.932" x="11.631" y="8.828" color-interpolation-filters="sRGB" filterUnits="userSpaceOnUse"><feFlood flood-opacity="0" result="BackgroundImageFix"/><feColorMatrix in="SourceAlpha" result="hardAlpha" values="0 0 0 0 0 0 0 0 0 0 0 0 0 0 0 0 0 0 127 0"/><feOffset dy="1"/><feGaussianBlur stdDeviation="1"/><feComposite in2="hardAlpha" operator="out"/><feColorMatrix values="0 0 0 0 0.0885876 0 0 0 0 0.240744 0 0 0 0 0.626988 0 0 0 0.4 0"/><feBlend in2="BackgroundImageFix" result="effect1_dropShadow_517_26895"/><feBlend in="SourceGraphic" in2="effect1_dropShadow_517_26895" result="shape"/></filter><filter id="g" width="6.932" height="6.932" x="8.801" y="11.656" color-interpolation-filters="sRGB" filterUnits="userSpaceOnUse"><feFlood flood-opacity="0" result="BackgroundImageFix"/><feColorMatrix in="SourceAlpha" result="hardAlpha" values="0 0 0 0 0 0 0 0 0 0 0 0 0 0 0 0 0 0 127 0"/><feOffset dy="1"/><feGaussianBlur stdDeviation="1"/><feComposite in2="hardAlpha" operator="out"/><feColorMatrix values="0 0 0 0 0.0885876 0 0 0 0 0.240744 0 0 0 0 0.626988 0 0 0 0.4 0"/><feBlend in2="BackgroundImageFix" result="effect1_dropShadow_517_26895"/><feBlend in="SourceGraphic" in2="effect1_dropShadow_517_26895" result="shape"/></filter><linearGradient id="b" x1="13" x2="13" y1="3.5" y2="20.5" gradientUnits="userSpaceOnUse"><stop stop-color="#fff"/><stop offset="1" stop-color="#fff" stop-opacity=".38"/></linearGradient><linearGradient id="c" x1="13" x2="13" y1="4.5" y2="19.5" gradientUnits="userSpaceOnUse"><stop stop-color="#89AAFC"/><stop offset="1" stop-color="#DFEAFF"/></linearGradient></defs></svg>