<svg xmlns="http://www.w3.org/2000/svg" fill="none" class="design-iconfont" viewBox="0 0 26 26"><g filter="url(#a)"><path fill="url(#b)" d="M4 4.5a1 1 0 0 1 1-1h16a1 1 0 0 1 1 1v15a1 1 0 0 1-1 1H5a1 1 0 0 1-1-1z" shape-rendering="crispEdges"/></g><path fill="url(#c)" d="M5 5.5a1 1 0 0 1 1-1h14a1 1 0 0 1 1 1v13a1 1 0 0 1-1 1H6a1 1 0 0 1-1-1z"/><g filter="url(#d)"><mask id="e" width="9" height="11" x="5.938" y="6.465" fill="#000" maskUnits="userSpaceOnUse"><path fill="#fff" d="M5.938 6.465h9v11h-9z"/><path fill-rule="evenodd" d="m7.938 12 1.414 1.415v-.001l2.122 2.121 1.414-1.414L10.767 12l2.12-2.12-1.414-1.415-2.12 2.12z" clip-rule="evenodd"/></mask><path fill="#fff" fill-opacity=".2" fill-rule="evenodd" d="m7.938 12 1.414 1.415v-.001l2.122 2.121 1.414-1.414L10.767 12l2.12-2.12-1.414-1.415-2.12 2.12z" clip-rule="evenodd" shape-rendering="crispEdges"/><path fill="#fff" d="m7.938 12-.708-.707-.707.707.707.707zm0 0 .707.707zm1.414 1.415-.707.707.707.707.707-.707zm0-.001.708-.707L9.353 12l-.708.707zm2.122 2.121-.707.707.707.707.707-.707zm1.414-1.414.707.707.707-.707-.707-.707zM10.767 12l-.707-.708-.707.708.707.707zm2.12-2.12.707.706.708-.707-.708-.707zm-1.414-1.415.707-.707-.707-.707-.707.707zm-2.12 2.12-.708-.707zm-.708 2.122-1.414-1.415v.001zm1.414 0-1.414-1.414-1.415 1.415 1.415 1.414zm-1.414 0 1.414 1.415v-.001zm3.536 2.121-2.121-2.121-1.415 1.414 2.122 2.121zm0-1.414-1.414 1.414 1.414 1.414 1.414-1.414zm-2.121-.707 2.121 2.121 1.414-1.414-2.121-2.122zm2.12-3.535-2.12 2.12 1.414 1.415 2.12-2.12zm-1.414 0 1.414 1.414 1.414-1.414-1.414-1.414zm-.706 2.12 2.12-2.12-1.414-1.414-2.12 2.12zm-1.415 1.415 1.415-1.415-1.415-1.414-1.414 1.414z" mask="url(#e)"/></g><g filter="url(#f)" shape-rendering="crispEdges"><path fill="#fff" fill-opacity=".2" d="M18.063 8.021v7.956h-1V8.022z"/><path stroke="#fff" d="M18.563 8.021v-.5h-2v8.956h2z"/></g><defs><filter id="a" width="26" height="25" x="0" y=".5" color-interpolation-filters="sRGB" filterUnits="userSpaceOnUse"><feFlood flood-opacity="0" result="BackgroundImageFix"/><feColorMatrix in="SourceAlpha" result="hardAlpha" values="0 0 0 0 0 0 0 0 0 0 0 0 0 0 0 0 0 0 127 0"/><feOffset dy="1"/><feGaussianBlur stdDeviation="2"/><feComposite in2="hardAlpha" operator="out"/><feColorMatrix values="0 0 0 0 0.0885876 0 0 0 0 0.240744 0 0 0 0 0.626988 0 0 0 0.2 0"/><feBlend in2="BackgroundImageFix" result="effect1_dropShadow_188_26016"/><feBlend in="SourceGraphic" in2="effect1_dropShadow_188_26016" result="shape"/></filter><filter id="d" width="11.779" height="13.898" x="4.523" y="6.051" color-interpolation-filters="sRGB" filterUnits="userSpaceOnUse"><feFlood flood-opacity="0" result="BackgroundImageFix"/><feColorMatrix in="SourceAlpha" result="hardAlpha" values="0 0 0 0 0 0 0 0 0 0 0 0 0 0 0 0 0 0 127 0"/><feOffset dy="1"/><feGaussianBlur stdDeviation="1"/><feComposite in2="hardAlpha" operator="out"/><feColorMatrix values="0 0 0 0 0.0885876 0 0 0 0 0.240744 0 0 0 0 0.626988 0 0 0 0.4 0"/><feBlend in2="BackgroundImageFix" result="effect1_dropShadow_188_26016"/><feBlend in="SourceGraphic" in2="effect1_dropShadow_188_26016" result="shape"/></filter><filter id="f" width="7" height="13.956" x="14.063" y="6.021" color-interpolation-filters="sRGB" filterUnits="userSpaceOnUse"><feFlood flood-opacity="0" result="BackgroundImageFix"/><feColorMatrix in="SourceAlpha" result="hardAlpha" values="0 0 0 0 0 0 0 0 0 0 0 0 0 0 0 0 0 0 127 0"/><feOffset dy="1"/><feGaussianBlur stdDeviation="1"/><feComposite in2="hardAlpha" operator="out"/><feColorMatrix values="0 0 0 0 0.0885876 0 0 0 0 0.240744 0 0 0 0 0.626988 0 0 0 0.4 0"/><feBlend in2="BackgroundImageFix" result="effect1_dropShadow_188_26016"/><feBlend in="SourceGraphic" in2="effect1_dropShadow_188_26016" result="shape"/></filter><linearGradient id="b" x1="13" x2="13" y1="3.5" y2="20.5" gradientUnits="userSpaceOnUse"><stop stop-color="#fff"/><stop offset="1" stop-color="#fff" stop-opacity=".38"/></linearGradient><linearGradient id="c" x1="13" x2="13" y1="4.5" y2="19.5" gradientUnits="userSpaceOnUse"><stop stop-color="#89AAFC"/><stop offset="1" stop-color="#DFEAFF"/></linearGradient></defs></svg>