<svg xmlns="http://www.w3.org/2000/svg" fill="none" class="design-iconfont" viewBox="0 0 23 27"><path fill="url(#a)" d="M9.258 1.461a4 4 0 0 1 4 0l7.259 4.19a4 4 0 0 1 2 3.465v8.381a4 4 0 0 1-2 3.464l-7.259 4.19a4 4 0 0 1-4 0L2 20.962a4 4 0 0 1-2-3.464V9.116a4 4 0 0 1 2-3.464z"/><path fill="url(#b)" d="M9.258 1.461a4 4 0 0 1 4 0l7.259 4.19a4 4 0 0 1 2 3.465v8.381a4 4 0 0 1-2 3.464l-7.259 4.19a4 4 0 0 1-4 0L2 20.962a4 4 0 0 1-2-3.464V9.116a4 4 0 0 1 2-3.464z"/><path fill="#fff" d="M14.951 7.126H7.565c-.905 0-1.659.754-1.659 1.658v9.045c0 .905.754 1.659 1.659 1.659h7.386c.905 0 1.659-.754 1.659-1.659V8.784c0-.904-.754-1.658-1.659-1.658m-1.206 10.553H8.771c-.302 0-.603-.302-.603-.603 0-.302.301-.603.603-.603h4.974c.302 0 .603.301.603.603 0 .301-.301.603-.603.603m1.206-4.975-1.356-1.206a.46.46 0 0 0-.603 0l-1.357 1.206V9.387c0-.301.301-.603.603-.603h2.261c.15 0 .452.302.452.603z"/><defs><linearGradient id="a" x1="11.258" x2="11.258" y1=".307" y2="26.307" gradientUnits="userSpaceOnUse"><stop stop-color="#B3B7BF"/><stop offset="1" stop-color="#969AA1"/></linearGradient><linearGradient id="b" x1="11.258" x2="11.258" y1=".307" y2="26.307" gradientUnits="userSpaceOnUse"><stop stop-color="#55F996"/><stop offset="1" stop-color="#01D689"/></linearGradient></defs></svg>