<svg xmlns="http://www.w3.org/2000/svg" width="144" height="125" fill="none"><path fill="url(#a)" stroke="url(#b)" d="M142.858 58.054c0 1.922-.524 3.845-1.572 5.418l-14.68 23.068-16.078 25.165c-1.398 2.097-3.67 3.496-6.292 3.496h-65.71L55.13 86.54h34.952l14.855-25.515c.699-1.398-.175-2.97-1.748-2.97H71.731l16.602-28.661h34.428c2.272 0 4.369 1.223 5.592 3.145l12.758 20.098c1.223 1.572 1.747 3.495 1.747 5.417Z"/><path fill="url(#c)" stroke="url(#d)" d="M38.702 54.909c-.7 1.398.174 2.97 1.747 2.97h31.457L55.304 86.54H20.876c-2.272 0-4.369-1.223-5.592-3.146L2.352 63.473C1.303 61.724.779 59.977.779 58.054s.524-3.844 1.573-5.417l14.68-23.068 16.077-25.34C34.507 2.13 36.954.732 39.401.732h65.535l-16.603 28.66H53.382z"/><path fill="url(#e)" d="M142.858 57.88v9.087c0 1.922-.524 3.844-1.572 5.417l-30.758 48.409c-1.398 2.097-3.845 3.495-6.292 3.495h-65.71V115.2h65.536c2.621 0 4.893-1.398 6.291-3.495l16.253-25.34 14.68-23.068c1.048-1.748 1.572-3.67 1.572-5.418" opacity=".8"/><path fill="url(#f)" d="m104.935 61.025-3.495 6.117H71.731l-11.36 19.573H55.13l16.602-28.66h31.457c1.573 0 2.621 1.572 1.747 2.97" opacity=".8"/><path fill="url(#g)" d="m101.44 67.142 3.495-6.117c.874-1.398-.174-2.97-1.747-2.97H71.731v9.087z" opacity=".8"/><path fill="url(#h)" d="M104.936.733v9.088l-11.36 19.573h-5.242z" opacity=".8"/><path fill="url(#i)" d="m88.508 29.394-5.243 9.087h-29.71L42.197 58.054H40.45c-1.573 0-2.622-1.748-1.748-2.97l14.855-25.516h34.951z" opacity=".8"/><path fill="url(#j)" d="m55.13 86.54-5.244 9.087h-29.01c-2.272 0-4.369-1.223-5.592-3.145L2.352 72.559C1.303 70.986.779 69.064.779 67.142v-9.088c0 1.923.524 3.845 1.573 5.418l12.757 20.097c1.223 1.922 3.32 3.146 5.592 3.146H55.13z" opacity=".8"/><defs><linearGradient id="a" x1="90.693" x2="90.693" y1="29.394" y2="115.201" gradientUnits="userSpaceOnUse"><stop stop-color="#AEFFD3"/><stop offset="1" stop-color="#13C966"/></linearGradient><linearGradient id="b" x1="132.493" x2="90.803" y1="35.066" y2="115.258" gradientUnits="userSpaceOnUse"><stop stop-color="#fff" stop-opacity="0"/><stop offset="1" stop-color="#fff" stop-opacity=".82"/></linearGradient><linearGradient id="c" x1="52.857" x2="52.857" y1=".733" y2="86.54" gradientUnits="userSpaceOnUse"><stop stop-color="#A3C6FF"/><stop offset="1" stop-color="#2275FF"/></linearGradient><linearGradient id="d" x1="94.587" x2="52.857" y1="6.405" y2="86.54" gradientUnits="userSpaceOnUse"><stop stop-color="#fff" stop-opacity="0"/><stop offset="1" stop-color="#fff" stop-opacity=".55"/></linearGradient><linearGradient id="e" x1="90.693" x2="90.693" y1="57.879" y2="124.288" gradientUnits="userSpaceOnUse"><stop stop-color="#AEFFD3"/><stop offset="1" stop-color="#0FE270"/></linearGradient><linearGradient id="f" x1="80.191" x2="80.191" y1="58.054" y2="86.715" gradientUnits="userSpaceOnUse"><stop stop-color="#A3C6FF"/><stop offset="1" stop-color="#2275FF"/></linearGradient><linearGradient id="g" x1="72.889" x2="100.968" y1="67.142" y2="67.142" gradientUnits="userSpaceOnUse"><stop stop-color="#AEFFD3"/><stop offset="1" stop-color="#0FE270"/></linearGradient><linearGradient id="h" x1="105.825" x2="89.13" y1=".733" y2="27.995" gradientUnits="userSpaceOnUse"><stop stop-color="#A3C6FF"/><stop offset="1" stop-color="#2275FF"/></linearGradient><linearGradient id="i" x1="63.446" x2="63.446" y1="29.394" y2="58.054" gradientUnits="userSpaceOnUse"><stop stop-color="#A3C6FF"/><stop offset="1" stop-color="#2275FF"/></linearGradient><linearGradient id="j" x1="27.954" x2="27.954" y1="58.054" y2="95.627" gradientUnits="userSpaceOnUse"><stop stop-color="#A3C6FF"/><stop offset="1" stop-color="#2275FF"/></linearGradient></defs></svg>