<svg xmlns="http://www.w3.org/2000/svg" xmlns:xlink="http://www.w3.org/1999/xlink" width="24" height="24"><defs><linearGradient id="a" x1="0%" x2="85.607%" y1="0%" y2="88.541%"><stop offset="0%" stop-color="#05E0CF"/><stop offset="100%" stop-color="#02BDA1"/></linearGradient><linearGradient id="d" x1="56.555%" x2="56.555%" y1="95.676%" y2="0%"><stop offset="0%" stop-color="#FFF"/><stop offset="100%" stop-color="#FFF" stop-opacity=".8"/></linearGradient><linearGradient id="e" x1="56.555%" x2="56.555%" y1="95.676%" y2="0%"><stop offset="0%" stop-color="#FFF"/><stop offset="100%" stop-color="#FFF" stop-opacity=".8"/></linearGradient><path id="b" d="M0 0h16v16H0z"/></defs><g fill="none" fill-rule="evenodd"><rect width="24" height="24" fill="url(#a)" rx="8"/><g transform="translate(5 4)"><mask id="c" fill="#fff"><use xlink:href="#b"/></mask><g mask="url(#c)"><path fill="url(#d)" d="M8 0a1 1 0 0 1 1 1v3a1 1 0 0 1-1 1H1a1 1 0 0 1-1-1V1a1 1 0 0 1 1-1zm0 8a1 1 0 0 1 1 1v3a1 1 0 0 1-1 1H1a1 1 0 0 1-1-1V9a1 1 0 0 1 1-1z" transform="translate(1 1.5)"/><path fill="url(#e)" d="M10.12 1.872a5.59 5.59 0 0 1 2.413 4.027l.915.001a.6.6 0 1 1 0 1.2h-.916a5.59 5.59 0 0 1-2.426 4.03.6.6 0 0 1-.674-.994 4.39 4.39 0 0 0 1.932-3.64 4.39 4.39 0 0 0-1.92-3.633.6.6 0 1 1 .676-.991" transform="translate(1 1.5)"/></g></g></g></svg>