<svg xmlns="http://www.w3.org/2000/svg" xmlns:xlink="http://www.w3.org/1999/xlink" width="24" height="24"><defs><linearGradient id="a" x1="50%" x2="50%" y1="0%" y2="100%"><stop offset="0%" stop-color="#A8A1FC"/><stop offset="100%" stop-color="#6F68F8"/></linearGradient><path id="b" d="M0 0h16v16H0z"/></defs><g fill="none" fill-rule="evenodd"><rect width="24" height="24" fill="url(#a)" rx="8"/><g transform="translate(4 4)"><mask id="c" fill="#fff"><use xlink:href="#b"/></mask><g mask="url(#c)"><path fill="#FFF" fill-opacity=".6" d="M10.75 8H15v5a2 2 0 0 1-2 2h-.354a2 2 0 0 1-2-2.042z"/><path fill="#FFF" d="M11.987 12.669V8.456l-.031-5.466a2 2 0 0 0-2.002-1.988l-6.948.005a2 2 0 0 0-1.999 2.008l.036 9.658c0 1.283 1.126 2.327 2.51 2.327l7.45-.009h2.504q.255 0 .493-.045c-1.146-.213-2.013-1.153-2.013-2.277"/><path fill="#8B84FA" d="M6.4 9.6H3.6a.6.6 0 1 1 0-1.2h2.8a.6.6 0 1 1 0 1.2m1-2.2H3.6a.6.6 0 1 1 0-1.2h3.8a.6.6 0 1 1 0 1.2m2-2.2H3.6a.6.6 0 1 1 0-1.2h5.8a.6.6 0 1 1 0 1.2"/></g></g></g></svg>