<svg xmlns="http://www.w3.org/2000/svg" xmlns:xlink="http://www.w3.org/1999/xlink" width="18.001" height="18"><defs><linearGradient id="c" x1="35.66%" x2="50%" y1="-28.46%" y2="74.313%"><stop offset="0%" stop-color="#FFF" stop-opacity=".153"/><stop offset="100%" stop-color="#FFF"/></linearGradient><linearGradient id="d" x1="39.929%" x2="109.512%" y1="64.052%" y2="64.052%"><stop offset="0%" stop-color="#FFF"/><stop offset="100%" stop-color="#FFF" stop-opacity=".536"/></linearGradient><path id="a" d="M0 0h24v24H0z"/></defs><g fill="none" fill-rule="evenodd" transform="translate(-2.999 -3)"><mask id="b" fill="#fff"><use xlink:href="#a"/></mask><g mask="url(#b)"><path fill="url(#c)" d="m3.201 4 3.3 10h-6.5V4z" transform="translate(2.999 3)"/><path fill="url(#d)" d="M9.001 0a9 9 0 1 1 0 18h-7a2 2 0 0 1-2-2v-2h8.722a5 5 0 0 0 4.996-4.783L13.723 9a5 5 0 0 0-5-5H4.28A5 5 0 0 0 0 6.412L.001 2a2 2 0 0 1 2-2z" transform="translate(2.999 3)"/></g></g></svg>