<svg xmlns="http://www.w3.org/2000/svg" fill="none" class="design-iconfont" viewBox="0 0 20 21"><g filter="url(#a)"><rect width="14.716" height="11.192" x="2.642" y="4.579" fill="#D9D9D9" rx="2"/><rect width="14.716" height="11.192" x="2.642" y="4.579" fill="url(#b)" rx="2"/><rect width="14.716" height="11.192" x="2.642" y="4.579" fill="url(#c)" rx="2"/><rect width="14.716" height="11.192" x="2.642" y="4.579" fill="url(#d)" rx="2"/></g><path fill="#fff" d="M5.49 8.033h1.96q.64 0 1.002.306.335.288.336.774-.002.36-.174.612c-.114.156-.276.27-.492.354q.422.081.636.342c.138.168.21.402.21.69q-.001.648-.444.954c-.252.168-.612.252-1.068.252H5.49zm.701.576v1.224h1.074c.3 0 .51-.054.636-.15.12-.102.186-.264.186-.486 0-.204-.066-.354-.186-.444-.132-.096-.336-.144-.624-.144zm0 1.8v1.332h1.164q.397 0 .624-.126c.192-.108.288-.276.288-.516q-.002-.367-.21-.528-.216-.162-.684-.162zm4.353-2.196v1.002h.69v.564h-.69v1.752c0 .072.012.126.048.168.036.036.084.054.156.054h.408v.564h-.522q-.405 0-.594-.216c-.12-.132-.18-.318-.18-.57V9.78h-.558v-.564h.558v-.72zm2.804.918c.774 0 1.164.42 1.164 1.272v1.914h-.684v-1.854q0-.764-.702-.762a.63.63 0 0 0-.444.18q-.216.2-.252.57v1.866h-.684V9.215h.684v.36a1.2 1.2 0 0 1 .408-.33q.232-.115.51-.114" opacity=".5"/><defs><linearGradient id="b" x1="10" x2="10" y1="4.579" y2="15.771" gradientUnits="userSpaceOnUse"><stop stop-color="#54CCFF"/><stop offset="1" stop-color="#1B69FF"/></linearGradient><linearGradient id="c" x1="18.955" x2="13.778" y1="7.789" y2="17.737" gradientUnits="userSpaceOnUse"><stop stop-color="#AAFFB8" stop-opacity=".68"/><stop offset=".397" stop-color="#48FF65" stop-opacity="0"/></linearGradient><linearGradient id="d" x1="16.278" x2="6.387" y1="7.991" y2="18.129" gradientUnits="userSpaceOnUse"><stop offset=".51" stop-color="#A244FF" stop-opacity="0"/><stop offset=".978" stop-color="#A244FF"/></linearGradient><filter id="a" width="18.716" height="15.192" x=".642" y="3.579" color-interpolation-filters="sRGB" filterUnits="userSpaceOnUse"><feFlood flood-opacity="0" result="BackgroundImageFix"/><feColorMatrix in="SourceAlpha" result="hardAlpha" values="0 0 0 0 0 0 0 0 0 0 0 0 0 0 0 0 0 0 127 0"/><feOffset dy="1"/><feGaussianBlur stdDeviation="1"/><feComposite in2="hardAlpha" operator="out"/><feColorMatrix values="0 0 0 0 0.215686 0 0 0 0 0.6 0 0 0 0 1 0 0 0 0.4 0"/><feBlend in2="BackgroundImageFix" result="effect1_dropShadow_32_8298"/><feBlend in="SourceGraphic" in2="effect1_dropShadow_32_8298" result="shape"/></filter></defs></svg>