<svg xmlns="http://www.w3.org/2000/svg" fill="none" class="design-iconfont" viewBox="0 0 20 21"><g clip-path="url(#a)"><g filter="url(#b)"><path fill="url(#c)" d="M17.358 13.486V6.864c0-.572-.327-1.145-.818-1.39l-5.723-3.27a1.49 1.49 0 0 0-1.635 0L3.46 5.474c-.49.327-.817.818-.817 1.39v6.622c0 .573.327 1.145.817 1.39l5.723 3.27c.49.328 1.145.328 1.635 0l5.723-3.27c.49-.245.818-.817.818-1.39"/><path fill="url(#d)" d="M17.358 13.486V6.864c0-.572-.327-1.145-.818-1.39l-5.723-3.27a1.49 1.49 0 0 0-1.635 0L3.46 5.474c-.49.327-.817.818-.817 1.39v6.622c0 .573.327 1.145.817 1.39l5.723 3.27c.49.328 1.145.328 1.635 0l5.723-3.27c.49-.245.818-.817.818-1.39"/><path fill="url(#e)" d="M17.358 13.486V6.864c0-.572-.327-1.145-.818-1.39l-5.723-3.27a1.49 1.49 0 0 0-1.635 0L3.46 5.474c-.49.327-.817.818-.817 1.39v6.622c0 .573.327 1.145.817 1.39l5.723 3.27c.49.328 1.145.328 1.635 0l5.723-3.27c.49-.245.818-.817.818-1.39"/></g><path fill="#fff" d="M4.865 8.284a.5.5 0 0 0-.752.432v4.196a1 1 0 0 0 .496.864l3.658 2.133a.5.5 0 0 0 .752-.432v-4.196a1 1 0 0 0-.496-.864z" opacity=".3"/><path fill="#fff" d="M13.985 6.884a.5.5 0 0 0 .005-.867l-3.65-2.13a1 1 0 0 0-1.008 0l-3.65 2.13a.5.5 0 0 0 .005.867l3.656 2.072a1 1 0 0 0 .986 0z" opacity=".5"/><path fill="#fff" d="M15.559 8.716a.5.5 0 0 0-.752-.432l-3.658 2.133a1 1 0 0 0-.496.864v4.196a.5.5 0 0 0 .752.432l3.658-2.133a1 1 0 0 0 .496-.864z" opacity=".3"/></g><defs><linearGradient id="c" x1="10" x2="10" y1="1.959" y2="18.392" gradientUnits="userSpaceOnUse"><stop stop-color="#54CCFF"/><stop offset="1" stop-color="#1B69FF"/></linearGradient><linearGradient id="d" x1="18.956" x2="10" y1="6.671" y2="18.392" gradientUnits="userSpaceOnUse"><stop stop-color="#AAFFB8" stop-opacity=".68"/><stop offset=".397" stop-color="#48FF65" stop-opacity="0"/></linearGradient><linearGradient id="e" x1="16.278" x2="2.642" y1="6.968" y2="16.488" gradientUnits="userSpaceOnUse"><stop offset=".51" stop-color="#A244FF" stop-opacity="0"/><stop offset=".978" stop-color="#A244FF"/></linearGradient><clipPath id="a"><path fill="#fff" d="M0 .175h20v20H0z"/></clipPath><filter id="b" width="18.716" height="20.433" x=".642" y=".959" color-interpolation-filters="sRGB" filterUnits="userSpaceOnUse"><feFlood flood-opacity="0" result="BackgroundImageFix"/><feColorMatrix in="SourceAlpha" result="hardAlpha" values="0 0 0 0 0 0 0 0 0 0 0 0 0 0 0 0 0 0 127 0"/><feOffset dy="1"/><feGaussianBlur stdDeviation="1"/><feComposite in2="hardAlpha" operator="out"/><feColorMatrix values="0 0 0 0 0.215686 0 0 0 0 0.6 0 0 0 0 1 0 0 0 0.4 0"/><feBlend in2="BackgroundImageFix" result="effect1_dropShadow_32_8274"/><feBlend in="SourceGraphic" in2="effect1_dropShadow_32_8274" result="shape"/></filter></defs></svg>