<svg xmlns="http://www.w3.org/2000/svg" fill="none" class="design-iconfont" viewBox="0 0 20 21"><g clip-path="url(#a)"><g filter="url(#b)"><rect width="14.716" height="14.857" x="2.643" y="2.747" fill="#D9D9D9" rx="2"/><rect width="14.716" height="14.857" x="2.643" y="2.747" fill="url(#c)" rx="2"/><rect width="14.716" height="14.857" x="2.643" y="2.747" fill="url(#d)" rx="2"/><rect width="14.716" height="14.857" x="2.643" y="2.747" fill="url(#e)" rx="2"/></g><path fill="#fff" d="M3.963 5.304a1 1 0 0 1 1-1h10.075a1 1 0 0 1 1 1v3.344H3.963zm0 10.013a1 1 0 0 0 1 1h2.082v-6.204H3.963zm4.633 1h6.442a1 1 0 0 0 1-1v-5.204H8.596z" opacity=".5"/></g><defs><linearGradient id="c" x1="10.001" x2="10.001" y1="2.747" y2="17.604" gradientUnits="userSpaceOnUse"><stop stop-color="#54CCFF"/><stop offset="1" stop-color="#1B69FF"/></linearGradient><linearGradient id="d" x1="18.956" x2="11.108" y1="7.007" y2="18.368" gradientUnits="userSpaceOnUse"><stop stop-color="#AAFFB8" stop-opacity=".68"/><stop offset=".397" stop-color="#48FF65" stop-opacity="0"/></linearGradient><linearGradient id="e" x1="16.279" x2="3.573" y1="7.276" y2="17.087" gradientUnits="userSpaceOnUse"><stop offset=".51" stop-color="#A244FF" stop-opacity="0"/><stop offset=".978" stop-color="#A244FF"/></linearGradient><clipPath id="a"><path fill="#fff" d="M0 .175h20v20H0z"/></clipPath><filter id="b" width="18.716" height="18.857" x=".643" y="1.747" color-interpolation-filters="sRGB" filterUnits="userSpaceOnUse"><feFlood flood-opacity="0" result="BackgroundImageFix"/><feColorMatrix in="SourceAlpha" result="hardAlpha" values="0 0 0 0 0 0 0 0 0 0 0 0 0 0 0 0 0 0 127 0"/><feOffset dy="1"/><feGaussianBlur stdDeviation="1"/><feComposite in2="hardAlpha" operator="out"/><feColorMatrix values="0 0 0 0 0.215686 0 0 0 0 0.6 0 0 0 0 1 0 0 0 0.4 0"/><feBlend in2="BackgroundImageFix" result="effect1_dropShadow_32_8306"/><feBlend in="SourceGraphic" in2="effect1_dropShadow_32_8306" result="shape"/></filter></defs></svg>