<svg xmlns="http://www.w3.org/2000/svg" width="23" height="26" fill="none"><path fill="url(#a)" d="M9.258 1.155a4 4 0 0 1 4 0l7.259 4.19a4 4 0 0 1 2 3.464v8.382a4 4 0 0 1-2 3.464l-7.259 4.19a4 4 0 0 1-4 0L2 20.655a4 4 0 0 1-2-3.464V8.809a4 4 0 0 1 2-3.464z"/><path fill="url(#b)" d="M9.258 1.155a4 4 0 0 1 4 0l7.259 4.19a4 4 0 0 1 2 3.464v8.382a4 4 0 0 1-2 3.464l-7.259 4.19a4 4 0 0 1-4 0L2 20.655a4 4 0 0 1-2-3.464V8.809a4 4 0 0 1 2-3.464z"/><path fill="#fff" d="M11.43 11.05c1.209 0 2.213.83 2.5 1.947h2.326q.001-.138-.005-.276a.67.67 0 0 1 .261-.564l.44-.328a.725.725 0 0 0 .247-1.009l-1.06-1.824a.86.86 0 0 0-.462-.353.74.74 0 0 0-.543.056l-.518.215a.66.66 0 0 1-.599-.051 6 6 0 0 0-.487-.272.64.64 0 0 1-.353-.481l-.082-.528a.75.75 0 0 0-.764-.707h-2.136a.77.77 0 0 0-.763.707l-.082.553a.65.65 0 0 1-.359.487 4 4 0 0 0-.456.256.66.66 0 0 1-.61.062l-.538-.215c-.353-.19-.789-.057-1.009.297l-1.06 1.829a.773.773 0 0 0 .246 1.009l.44.328c.18.133.277.343.261.563q-.015.255 0 .508a.66.66 0 0 1-.26.563l-.441.323a.724.724 0 0 0-.246 1.01l1.06 1.823a.86.86 0 0 0 .461.354c.19.056.38.025.543-.057l.518-.215a.66.66 0 0 1 .6.051q.229.145.465.267a.66.66 0 0 1 .349.481l.087.559c.026.41.353.707.763.707h.615v-2.977a2.58 2.58 0 0 1-1.947-2.5 2.604 2.604 0 0 1 2.598-2.597m5.133 2.593h-3.827c-.353 0-.66.277-.666.63a.64.64 0 0 0 .64.65h3.828c.353 0 .66-.276.666-.63a.636.636 0 0 0-.64-.65m0 3.853h-3.827c-.353 0-.66.276-.666.63a.64.64 0 0 0 .64.65h3.828c.353 0 .66-.276.666-.63a.636.636 0 0 0-.64-.65m0-1.927h-3.827c-.353 0-.66.277-.666.63a.64.64 0 0 0 .64.651h3.828c.353 0 .66-.277.666-.63a.636.636 0 0 0-.64-.65"/><defs><linearGradient id="a" x1="11.258" x2="11.258" y1="0" y2="26" gradientUnits="userSpaceOnUse"><stop stop-color="#B3B7BF"/><stop offset="1" stop-color="#969AA1"/></linearGradient><linearGradient id="b" x1="11.258" x2="11.258" y1="0" y2="26" gradientUnits="userSpaceOnUse"><stop stop-color="#FFC148"/><stop offset="1" stop-color="#EB7939"/></linearGradient></defs></svg>