<svg xmlns="http://www.w3.org/2000/svg" fill="none" class="design-iconfont" viewBox="0 0 23 24"><g filter="url(#a)"><path fill="url(#b)" d="M11.473 3.504C7.353 3.504 4 6.869 4 11.004c0 4.132 3.352 7.493 7.473 7.493.986 0 1.791-.803 1.791-1.79 0-.453-.166-.892-.436-1.162-.119-.145-.141-.224-.141-.322 0-.27.22-.49.49-.49h1.368c2.453 0 4.448-2.013 4.448-4.491-.057-3.715-3.432-6.738-7.52-6.738" shape-rendering="crispEdges"/></g><path fill="#000" d="M14.543 13.956h-1.368c-.698 0-1.266.569-1.266 1.267 0 .297.098.55.324.821l.033.037c.137.137.222.378.222.626 0 .559-.455 1.014-1.016 1.014-3.693 0-6.699-3.013-6.699-6.717 0-3.708 3.005-6.725 6.7-6.725 3.668 0 6.694 2.68 6.744 5.97 0 2.043-1.647 3.707-3.674 3.707"/><path fill="url(#c)" d="M14.543 13.956h-1.368c-.698 0-1.266.569-1.266 1.267 0 .297.098.55.324.821l.033.037c.137.137.222.378.222.626 0 .559-.455 1.014-1.016 1.014-3.693 0-6.699-3.013-6.699-6.717 0-3.708 3.005-6.725 6.7-6.725 3.668 0 6.694 2.68 6.744 5.97 0 2.043-1.647 3.707-3.674 3.707"/><g filter="url(#d)"><rect width="2.307" height="2.307" fill="#fff" rx="1.153" transform="matrix(-1 0 0 1 8.654 9.006)"/></g><g filter="url(#e)"><rect width="2.307" height="2.307" fill="#fff" rx="1.153" transform="matrix(-1 0 0 1 16.654 9.006)"/></g><g filter="url(#f)"><rect width="2.307" height="2.307" fill="#fff" rx="1.153" transform="matrix(-1 0 0 1 14.654 6.006)"/></g><g filter="url(#g)"><rect width="2.307" height="2.307" fill="#fff" rx="1.153" transform="matrix(-1 0 0 1 10.654 6.006)"/></g><defs><filter id="a" width="22.993" height="22.993" x="0" y=".504" color-interpolation-filters="sRGB" filterUnits="userSpaceOnUse"><feFlood flood-opacity="0" result="BackgroundImageFix"/><feColorMatrix in="SourceAlpha" result="hardAlpha" values="0 0 0 0 0 0 0 0 0 0 0 0 0 0 0 0 0 0 127 0"/><feOffset dy="1"/><feGaussianBlur stdDeviation="2"/><feComposite in2="hardAlpha" operator="out"/><feColorMatrix values="0 0 0 0 0.0885876 0 0 0 0 0.240744 0 0 0 0 0.626988 0 0 0 0.2 0"/><feBlend in2="BackgroundImageFix" result="effect1_dropShadow_188_20759"/><feBlend in="SourceGraphic" in2="effect1_dropShadow_188_20759" result="shape"/></filter><filter id="d" width="6.307" height="6.307" x="4.348" y="8.006" color-interpolation-filters="sRGB" filterUnits="userSpaceOnUse"><feFlood flood-opacity="0" result="BackgroundImageFix"/><feColorMatrix in="SourceAlpha" result="hardAlpha" values="0 0 0 0 0 0 0 0 0 0 0 0 0 0 0 0 0 0 127 0"/><feOffset dy="1"/><feGaussianBlur stdDeviation="1"/><feComposite in2="hardAlpha" operator="out"/><feColorMatrix values="0 0 0 0 0.0885876 0 0 0 0 0.240744 0 0 0 0 0.626988 0 0 0 0.4 0"/><feBlend in2="BackgroundImageFix" result="effect1_dropShadow_188_20759"/><feBlend in="SourceGraphic" in2="effect1_dropShadow_188_20759" result="shape"/></filter><filter id="e" width="6.307" height="6.307" x="12.348" y="8.006" color-interpolation-filters="sRGB" filterUnits="userSpaceOnUse"><feFlood flood-opacity="0" result="BackgroundImageFix"/><feColorMatrix in="SourceAlpha" result="hardAlpha" values="0 0 0 0 0 0 0 0 0 0 0 0 0 0 0 0 0 0 127 0"/><feOffset dy="1"/><feGaussianBlur stdDeviation="1"/><feComposite in2="hardAlpha" operator="out"/><feColorMatrix values="0 0 0 0 0.0885876 0 0 0 0 0.240744 0 0 0 0 0.626988 0 0 0 0.4 0"/><feBlend in2="BackgroundImageFix" result="effect1_dropShadow_188_20759"/><feBlend in="SourceGraphic" in2="effect1_dropShadow_188_20759" result="shape"/></filter><filter id="f" width="6.307" height="6.307" x="10.348" y="5.006" color-interpolation-filters="sRGB" filterUnits="userSpaceOnUse"><feFlood flood-opacity="0" result="BackgroundImageFix"/><feColorMatrix in="SourceAlpha" result="hardAlpha" values="0 0 0 0 0 0 0 0 0 0 0 0 0 0 0 0 0 0 127 0"/><feOffset dy="1"/><feGaussianBlur stdDeviation="1"/><feComposite in2="hardAlpha" operator="out"/><feColorMatrix values="0 0 0 0 0.0885876 0 0 0 0 0.240744 0 0 0 0 0.626988 0 0 0 0.4 0"/><feBlend in2="BackgroundImageFix" result="effect1_dropShadow_188_20759"/><feBlend in="SourceGraphic" in2="effect1_dropShadow_188_20759" result="shape"/></filter><filter id="g" width="6.307" height="6.307" x="6.348" y="5.006" color-interpolation-filters="sRGB" filterUnits="userSpaceOnUse"><feFlood flood-opacity="0" result="BackgroundImageFix"/><feColorMatrix in="SourceAlpha" result="hardAlpha" values="0 0 0 0 0 0 0 0 0 0 0 0 0 0 0 0 0 0 127 0"/><feOffset dy="1"/><feGaussianBlur stdDeviation="1"/><feComposite in2="hardAlpha" operator="out"/><feColorMatrix values="0 0 0 0 0.0885876 0 0 0 0 0.240744 0 0 0 0 0.626988 0 0 0 0.4 0"/><feBlend in2="BackgroundImageFix" result="effect1_dropShadow_188_20759"/><feBlend in="SourceGraphic" in2="effect1_dropShadow_188_20759" result="shape"/></filter><linearGradient id="b" x1="11.497" x2="11.497" y1="3.504" y2="18.497" gradientUnits="userSpaceOnUse"><stop stop-color="#fff"/><stop offset="1" stop-color="#fff" stop-opacity=".38"/></linearGradient><linearGradient id="c" x1="11.495" x2="11.495" y1="4.279" y2="17.721" gradientUnits="userSpaceOnUse"><stop stop-color="#89AAFC"/><stop offset="1" stop-color="#DFEAFF"/></linearGradient></defs></svg>