<svg xmlns="http://www.w3.org/2000/svg" fill="none" class="design-iconfont" viewBox="0 0 17 16"><path fill="url(#a)" fill-rule="evenodd" d="M2.73 2.333a1 1 0 0 1 1-1h9.334a1 1 0 0 1 1 1v11.556c0 .553-.59.907-1.079.647l-4.588-2.447-4.588 2.447a.733.733 0 0 1-1.079-.647z" clip-rule="evenodd"/><path fill="url(#b)" fill-rule="evenodd" d="M5.063 2.665a1 1 0 0 0-1 1v7.558a1 1 0 0 0 1.47.883l2.393-1.277a1 1 0 0 1 .942 0l2.393 1.277a1 1 0 0 0 1.47-.883V3.665a1 1 0 0 0-1-1z" clip-rule="evenodd"/><g fill-rule="evenodd" clip-rule="evenodd" filter="url(#c)"><path fill="url(#d)" d="M10.933 4.935a.5.5 0 0 0-.743-.053l-2.464 2.39-1.068-1.116a.5.5 0 0 0-.715-.007l-.285.285a.5.5 0 0 0-.008.7l1.688 1.762a.5.5 0 0 0 .715.008l.323-.323.036-.032 2.718-2.634a.5.5 0 0 0 .047-.666z"/><path fill="#fff" d="M10.933 4.935a.5.5 0 0 0-.743-.053l-2.464 2.39-1.068-1.116a.5.5 0 0 0-.715-.007l-.285.285a.5.5 0 0 0-.008.7l1.688 1.762a.5.5 0 0 0 .715.008l.323-.323.036-.032 2.718-2.634a.5.5 0 0 0 .047-.666z"/></g><defs><linearGradient id="a" x1="8.397" x2="8.397" y1="1.333" y2="14.623" gradientUnits="userSpaceOnUse"><stop stop-color="#FFB13C"/><stop offset="1" stop-color="#FD6D2F"/></linearGradient><linearGradient id="b" x1="8.397" x2="8.397" y1="2.665" y2="12.89" gradientUnits="userSpaceOnUse"><stop stop-color="#fff" stop-opacity=".4"/><stop offset="1" stop-color="#fff" stop-opacity=".56"/></linearGradient><linearGradient id="d" x1="11.027" x2="6.495" y1="3.523" y2="8.054" gradientUnits="userSpaceOnUse"><stop stop-color="#FFB13C"/><stop offset="1" stop-color="#FD6D2F"/></linearGradient><filter id="c" width="9.77" height="8.309" x="3.512" y="3.741" color-interpolation-filters="sRGB" filterUnits="userSpaceOnUse"><feFlood flood-opacity="0" result="BackgroundImageFix"/><feColorMatrix in="SourceAlpha" result="hardAlpha" values="0 0 0 0 0 0 0 0 0 0 0 0 0 0 0 0 0 0 127 0"/><feOffset dy="1"/><feGaussianBlur stdDeviation="1"/><feComposite in2="hardAlpha" operator="out"/><feColorMatrix values="0 0 0 0 1 0 0 0 0 0.369275 0 0 0 0 0.0144928 0 0 0 0.66 0"/><feBlend in2="BackgroundImageFix" result="effect1_dropShadow_117_9764"/><feBlend in="SourceGraphic" in2="effect1_dropShadow_117_9764" result="shape"/></filter></defs></svg>