<svg xmlns="http://www.w3.org/2000/svg" xmlns:xlink="http://www.w3.org/1999/xlink" width="24" height="24"><defs><linearGradient id="b" x1="24.065%" x2="100%" y1="0%" y2="100%"><stop offset="0%" stop-color="#FFC758"/><stop offset="100%" stop-color="#FFB92B"/></linearGradient><rect id="a" width="24" height="24" x="0" y="0" rx="8"/></defs><g fill="none" fill-rule="evenodd"><use xlink:href="#a" fill="url(#b)"/><path fill="#FFF" d="M17 6a2 2 0 0 1 2 2v6a2 2 0 0 1-2 2h-4.4v1.801H14a.6.6 0 0 1 .097 1.193L14 19h-4a.6.6 0 0 1-.097-1.192L10 17.8h1.4V16H7a2 2 0 0 1-2-2V8a2 2 0 0 1 2-2zm-5.5 5.65h-2l-.097.008A.6.6 0 0 0 9.5 12.85h2l.097-.008a.6.6 0 0 0-.097-1.192m3-2.5h-5l-.097.008A.6.6 0 0 0 9.5 10.35h5l.097-.008A.6.6 0 0 0 14.5 9.15"/></g></svg>