<svg xmlns="http://www.w3.org/2000/svg" fill="none" class="design-iconfont" viewBox="0 0 25 24"><path fill="#165DFF" d="M12.66 2a10 10 0 1 0 0 20 10 10 0 1 0 0-20"/><path fill="url(#a)" d="M17.398 8a.527.527 0 0 1 .061 1.049l-.061.004v5.79a1.053 1.053 0 0 1-1.053 1.052h-2.413l1.206 1.207a.527.527 0 0 1-.694.788l-.05-.044-1.733-1.733-1.733 1.733a.53.53 0 0 1-.695.044l-.05-.044a.526.526 0 0 1-.043-.695l.044-.05 1.206-1.206H8.977a1.05 1.05 0 0 1-.676-.246l-.068-.063a1.05 1.05 0 0 1-.309-.744v-5.79a.526.526 0 0 1-.061-1.048L7.924 8zm-1.053 1.053H8.976v5.79h7.37zm-.68 1.206a.53.53 0 0 1 .043.695l-.043.05-2.105 2.105a.53.53 0 0 1-.695.044l-.05-.044-1.207-1.207-1.206 1.207a.53.53 0 0 1-.695.044l-.05-.044a.526.526 0 0 1-.043-.695l.043-.05 1.58-1.578a.53.53 0 0 1 .694-.044l.05.044 1.206 1.206 1.734-1.733a.526.526 0 0 1 .744 0"/><defs><linearGradient id="a" x1="12.661" x2="12.661" y1="8" y2="18" gradientUnits="userSpaceOnUse"><stop stop-color="#fff"/><stop offset="1" stop-color="#fff" stop-opacity=".75"/></linearGradient></defs></svg>